<svg width="94" height="78" viewBox="0 0 94 78" fill="none" xmlns="http://www.w3.org/2000/svg">
<path d="M30.1094 47.9361H18.8486L24.4786 38.3504L30.1094 47.9361Z" fill="#A0C324"/>
<path d="M47.0018 0L41.3702 9.5895L35.7395 19.1744L30.1087 28.7616L24.4795 38.3504L30.1087 47.9353L35.7395 38.3504L38.5537 33.5579V33.5564L41.3687 28.7616H41.3702L47.0018 19.1744L52.6302 28.7616L58.261 38.3504L63.8902 47.9353L69.5209 38.3504L63.8902 28.7616L58.261 19.1744L52.6302 9.5895L47.0018 0Z" fill="#2E92A0"/>
<path d="M41.3703 28.7621L38.556 33.5553L38.5537 33.5568V33.5553L41.3679 28.7621H41.3703Z" fill="#2E92A0"/>
<path d="M75.1504 47.9361H63.8896L69.5196 38.3504L75.1504 47.9361Z" fill="#A0C324"/>
<path d="M55.4452 33.5552H38.5537L41.3679 28.7619H41.3703L47.001 19.174L52.631 28.7619L55.4452 33.5552Z" fill="#A0C324"/>
<path d="M55.4452 33.5551L47.001 47.9363L38.5537 33.5574V33.5551H55.4452Z" fill="#2E92A0"/>
<path d="M14.1871 55.9971H16.4596L20.081 64.4192H17.5531L16.9454 62.9138H13.6523L13.0446 64.4192H10.5781L14.1871 55.9971ZM16.2531 61.11L15.3055 58.7447L14.3454 61.11H16.2531Z" fill="#2E92A0"/>
<path d="M20.5557 62.9261L23.5818 59.7481H20.6651V57.9566H26.6436V59.4376L23.5934 62.6155H26.6436V64.4193H20.5557V62.9261Z" fill="#2E92A0"/>
<path d="M33.9356 61.1466V61.1703C33.9356 63.058 32.5627 64.5626 30.6177 64.5626C28.3576 64.5626 27.313 62.9145 27.313 61.0147C27.313 60.8712 27.313 60.7041 27.3246 60.5492H31.7237C31.5413 59.8442 31.0314 59.4856 30.3018 59.4856C29.7306 59.4856 29.3177 59.6885 28.8435 60.1547L27.5676 59.1155C28.2001 58.3151 29.0988 57.8016 30.4113 57.8016C32.4773 57.8016 33.9356 59.1514 33.9356 61.1466ZM29.4636 61.7197C29.549 62.4369 29.986 62.8901 30.6177 62.8901C31.2378 62.8901 31.6267 62.4369 31.7602 61.7197H29.4636Z" fill="#2E92A0"/>
<path d="M34.9209 57.9565H37.2299V59.259C37.6063 58.3868 38.2023 57.8016 39.3075 57.8489V60.2387H39.1135C37.8981 60.2387 37.2299 60.9071 37.2299 62.401V64.42H34.9209V57.9565Z" fill="#2E92A0"/>
<path d="M42.431 63.631V64.4199H40.1221V55.6987H42.431V58.8164C42.8804 58.2792 43.4392 57.813 44.4233 57.813C45.9795 57.813 47.34 59.0911 47.34 61.158V61.1817C47.34 63.2846 45.9911 64.5626 44.4358 64.5626C43.4392 64.5626 42.868 64.1208 42.431 63.631ZM45.0799 61.1939V61.1703C45.0799 60.3096 44.4598 59.7007 43.731 59.7007C42.9774 59.7007 42.3821 60.3096 42.3821 61.1703V61.1939C42.3821 62.0538 42.9774 62.6635 43.731 62.6635C44.4598 62.6635 45.0799 62.066 45.0799 61.1939Z" fill="#2E92A0"/>
<path d="M48.0205 62.5674V62.5437C48.0205 61.1939 49.0535 60.5126 50.5965 60.5126C51.2166 60.5126 51.7994 60.6202 52.1766 60.7644V60.656C52.1766 59.9754 51.7513 59.5924 50.8642 59.5924C50.1711 59.5924 49.6364 59.7236 49.0411 59.951L48.5669 58.3624C49.3089 58.0633 50.0982 57.8611 51.2282 57.8611C52.4071 57.8611 53.2097 58.1351 53.732 58.6486C54.2303 59.1277 54.4367 59.7954 54.4367 60.7033V64.4192H52.1642V63.7378C51.69 64.2277 51.0947 64.5626 50.22 64.5626C48.9682 64.5626 48.0205 63.8454 48.0205 62.5674ZM52.2007 62.0775V61.7784C51.9578 61.6831 51.6295 61.6121 51.2895 61.6121C50.6089 61.6121 50.2317 61.9219 50.2317 62.4125V62.4361C50.2317 62.8787 50.5724 63.1404 51.0458 63.1404C51.7265 63.1404 52.2007 62.7345 52.2007 62.0775Z" fill="#2E92A0"/>
<path d="M59.7967 57.9565H62.1662L59.7603 64.2643C59.1766 65.7934 58.5813 66.3672 57.2573 66.3672C56.4307 66.3672 55.7741 66.152 55.1548 65.8056L55.8595 64.2162C56.2359 64.4436 56.6131 64.5626 56.8684 64.5626C57.0989 64.5626 57.2573 64.5031 57.4148 64.3002L54.8389 57.9565H57.2448L58.5573 61.8509L59.7967 57.9565Z" fill="#2E92A0"/>
<path d="M62.3008 61.2176V61.194C62.3008 59.3658 63.7351 57.8245 65.8127 57.8245C67.174 57.8245 68.0487 58.3983 68.62 59.2582L67.0646 60.405C66.7363 59.9869 66.384 59.7244 65.8368 59.7244C65.0832 59.7244 64.5368 60.3692 64.5368 61.1696V61.194C64.5368 62.018 65.0715 62.6628 65.8492 62.6628C66.4204 62.6628 66.7604 62.4125 67.1127 61.9944L68.6564 63.0931C68.0363 63.9896 67.1857 64.5749 65.7398 64.5749C63.7467 64.5749 62.3008 63.045 62.3008 61.2176Z" fill="#2E92A0"/>
<path d="M69.1543 62.5674V62.5437C69.1543 61.1939 70.1873 60.5126 71.7302 60.5126C72.3504 60.5126 72.9332 60.6202 73.3104 60.7644V60.656C73.3104 59.9754 72.8851 59.5924 71.998 59.5924C71.3049 59.5924 70.7702 59.7236 70.1749 59.951L69.7007 58.3624C70.4427 58.0633 71.232 57.8611 72.362 57.8611C73.5409 57.8611 74.3435 58.1351 74.8658 58.6486C75.364 59.1277 75.5705 59.7954 75.5705 60.7033V64.4192H73.298V63.7378C72.8238 64.2277 72.2285 64.5626 71.3538 64.5626C70.1019 64.5626 69.1543 63.8454 69.1543 62.5674ZM73.3345 62.0775V61.7784C73.0916 61.6831 72.7633 61.6121 72.4233 61.6121C71.7427 61.6121 71.3655 61.9219 71.3655 62.4125V62.4361C71.3655 62.8787 71.7062 63.1404 72.1796 63.1404C72.8603 63.1404 73.3345 62.7345 73.3345 62.0775Z" fill="#2E92A0"/>
<path d="M76.7495 57.9565H79.0585V58.8645C79.4838 58.3265 80.0915 57.813 81.0267 57.813C82.4369 57.813 83.2627 58.7088 83.2627 60.1906V64.4199H80.9662V60.9193C80.9662 60.2028 80.6014 59.8205 80.031 59.8205C79.4597 59.8205 79.0585 60.2028 79.0585 60.9193V64.4199H76.7495V57.9565Z" fill="#2E92A0"/>
<path d="M2.53947 71.5129H0V69.4818H7.44922V71.5129H4.89733V77.8443H2.53947V71.5129Z" fill="#2E92A0"/>
<path d="M8.30029 69.1239H10.6939V70.7964H8.30029V69.1239ZM8.34841 71.3817H10.645V77.8451H8.34841V71.3817Z" fill="#2E92A0"/>
<path d="M11.6904 74.6428V74.6191C11.6904 72.7909 13.1247 71.2497 15.2024 71.2497C16.5637 71.2497 17.4384 71.8234 18.0096 72.6834L16.4543 73.8302C16.126 73.412 15.7736 73.1496 15.2264 73.1496C14.4728 73.1496 13.9264 73.7943 13.9264 74.5947V74.6191C13.9264 75.4432 14.4612 76.0879 15.2389 76.0879C15.8101 76.0879 16.15 75.8376 16.5024 75.4195L18.0461 76.5182C17.426 77.4148 16.5753 78 15.1294 78C13.1363 78 11.6904 76.4702 11.6904 74.6428Z" fill="#2E92A0"/>
<path d="M18.5444 75.9933V75.9696C18.5444 74.6191 19.5782 73.9385 21.1204 73.9385C21.7405 73.9385 22.3241 74.0461 22.7013 74.1895V74.0819C22.7013 73.4005 22.2753 73.0183 21.3889 73.0183C20.6951 73.0183 20.1603 73.1495 19.565 73.3769L19.0908 71.7883C19.8328 71.4892 20.6221 71.2863 21.7529 71.2863C22.9311 71.2863 23.7336 71.5609 24.2559 72.0744C24.755 72.5528 24.9606 73.2212 24.9606 74.1292V77.8451H22.6881V77.1637C22.2139 77.6536 21.6187 77.9885 20.7447 77.9885C19.4921 77.9885 18.5444 77.2713 18.5444 75.9933ZM22.7254 75.5034V75.2043C22.4817 75.1089 22.1542 75.0372 21.8135 75.0372C21.1328 75.0372 20.7556 75.3478 20.7556 75.8376V75.862C20.7556 76.3038 21.0963 76.5663 21.5698 76.5663C22.2512 76.5663 22.7254 76.1604 22.7254 75.5034Z" fill="#2E92A0"/>
<path d="M26.1401 71.3816H28.4491V72.6841C28.8255 71.812 29.4216 71.2267 30.5268 71.274V73.6638H30.3327C29.1173 73.6638 28.4491 74.3322 28.4491 75.8262V77.8451H26.1401V71.3816Z" fill="#2E92A0"/>
<path d="M37.6236 74.5718V74.5954C37.6236 76.4831 36.2507 77.9878 34.3057 77.9878C32.0456 77.9878 31.001 76.3397 31.001 74.4398C31.001 74.2963 31.001 74.1292 31.0126 73.9743H35.4117C35.2293 73.2693 34.7194 72.9107 33.9898 72.9107C33.4186 72.9107 33.0057 73.1137 32.5315 73.5799L31.2555 72.5406C31.8881 71.7403 32.7868 71.2267 34.0993 71.2267C36.1653 71.2267 37.6236 72.5765 37.6236 74.5718ZM33.1516 75.1448C33.237 75.862 33.6739 76.3153 34.3057 76.3153C34.9258 76.3153 35.3147 75.862 35.4482 75.1448H33.1516Z" fill="#2E92A0"/>
<path d="M38.9613 75.8376V73.1976H38.1836V71.3816H38.9613V69.745H41.2578V71.3816H42.7891V73.1976H41.2578V75.3958C41.2578 75.8613 41.4643 76.0406 41.8896 76.0406C42.1938 76.0406 42.4856 75.9574 42.765 75.8254V77.5941C42.3397 77.8207 41.805 77.9763 41.1608 77.9763C39.763 77.9763 38.9613 77.3789 38.9613 75.8376Z" fill="#2E92A0"/>
<path d="M47.2856 69.4819H54.0907V71.5131H49.6427V72.9345H53.6654V74.8581H49.6427V77.8445H47.2856V69.4819Z" fill="#2E92A0"/>
<path d="M54.6025 74.6427V74.6191C54.6025 72.7672 56.1331 71.2382 58.2356 71.2382C60.3381 71.2382 61.857 72.755 61.857 74.5947V74.6191C61.857 76.4701 60.3132 78 58.2115 78C56.1214 78 54.6025 76.4945 54.6025 74.6427ZM59.6209 74.6427V74.6191C59.6209 73.8187 59.0373 73.1495 58.2115 73.1495C57.3725 73.1495 56.8378 73.7942 56.8378 74.5947V74.6191C56.8378 75.4073 57.4214 76.0764 58.2356 76.0764C59.0738 76.0764 59.6209 75.4195 59.6209 74.6427Z" fill="#2E92A0"/>
<path d="M62.8291 71.3816H65.1381V72.6841C65.5145 71.812 66.1105 71.2267 67.2157 71.274V73.6638H67.0217C65.8063 73.6638 65.1381 74.3322 65.1381 75.8262V77.8451H62.8291V71.3816Z" fill="#2E92A0"/>
<path d="M67.9819 75.5988V71.3817H70.2909V74.8823C70.2909 75.5988 70.6557 75.9689 71.2269 75.9689C71.7973 75.9689 72.1986 75.5988 72.1986 74.8823V71.3817H74.4951V77.8451H72.1986V76.9486C71.7857 77.4865 71.1656 77.9885 70.2304 77.9885C68.8201 77.9885 67.9819 77.0806 67.9819 75.5988Z" fill="#2E92A0"/>
<path d="M75.7354 71.3816H78.0443V72.2659C78.4696 71.728 79.0773 71.2382 80.0009 71.2382C80.8756 71.2382 81.5439 71.6204 81.8962 72.2896C82.4674 71.6327 83.124 71.2382 84.0957 71.2382C85.5059 71.2382 86.3442 72.0866 86.3442 73.6035V77.8451H84.0352V74.3322C84.0352 73.6157 83.6828 73.2457 83.1357 73.2457C82.5893 73.2457 82.188 73.6157 82.188 74.3322V77.8451H79.8915V74.3322C79.8915 73.6157 79.5267 73.2457 78.9803 73.2457C78.4332 73.2457 78.0443 73.6157 78.0443 74.3322V77.8451H75.7354V71.3816Z" fill="#2E92A0"/>
<path d="M87.4863 75.5988V71.3817H89.7953V74.8823C89.7953 75.5988 90.1601 75.9689 90.7313 75.9689C91.3017 75.9689 91.703 75.5988 91.703 74.8823V71.3817H93.9995V77.8451H91.703V76.9486C91.2901 77.4865 90.67 77.9885 89.7348 77.9885C88.3245 77.9885 87.4863 77.0806 87.4863 75.5988Z" fill="#2E92A0"/>
</svg>
