<svg xmlns="http://www.w3.org/2000/svg" width="56" height="70" viewBox="0 0 56 70" fill="none">
  <mask id="mask0_876_3186" style="mask-type:alpha" maskUnits="userSpaceOnUse" x="0" y="0" width="56" height="70">
    <rect x="0.5" width="55" height="70" fill="#D9D9D9"/>
  </mask>
  <g mask="url(#mask0_876_3186)">
    <path d="M9.35724 60.8749L8.20284 62.0496L9.43068 63.8205H8.80386L7.85697 62.4117L7.44193 62.8268V63.8205H6.93604V60.8749H7.44193V62.235C7.49082 62.1732 7.56146 62.0937 7.65379 61.9966L8.71733 60.8749H9.35724Z" fill="#3F3F3F"/>
    <path d="M10.227 61.3211H9.76367V60.8752H10.227V61.3211ZM10.227 63.8205H9.76367V61.6875H10.227V63.8205Z" fill="#3F3F3F"/>
    <path d="M12.2744 63.0257H12.721C12.6921 63.2878 12.5934 63.4952 12.4249 63.6483C12.2563 63.8013 12.0393 63.8793 11.7742 63.8823L11.6359 64.0811C11.702 64.0693 11.7552 64.0632 11.7958 64.0632C11.8965 64.0632 11.978 64.0899 12.0399 64.1429C12.1019 64.1959 12.1329 64.265 12.1329 64.3505C12.1329 64.4682 12.0891 64.5616 12.0011 64.6309C11.9132 64.6999 11.7943 64.7347 11.6443 64.7347C11.5088 64.7347 11.3676 64.7052 11.2207 64.6463L11.2984 64.483C11.3965 64.5241 11.4915 64.5446 11.584 64.5446C11.7338 64.5446 11.8088 64.4902 11.8088 64.3812C11.8088 64.2783 11.7409 64.2267 11.6056 64.2267C11.5651 64.2267 11.5161 64.237 11.4586 64.2577L11.3806 64.1827L11.5969 63.8823C11.3231 63.8354 11.1119 63.7153 10.9635 63.5225C10.815 63.3297 10.7407 63.0787 10.7407 62.7694C10.7407 62.428 10.836 62.1527 11.0262 61.9437C11.2165 61.7347 11.4672 61.63 11.7785 61.63C12.0464 61.63 12.2619 61.6979 12.4249 61.8332C12.5877 61.9687 12.6849 62.1616 12.7168 62.4118H12.2528C12.1978 62.1409 12.036 62.0055 11.767 62.0055C11.5937 62.0055 11.4564 62.0718 11.3551 62.2042C11.2539 62.3366 11.2035 62.5178 11.2035 62.7472C11.2035 62.983 11.2532 63.1685 11.353 63.3038C11.4527 63.4393 11.5892 63.507 11.7627 63.507C12.0431 63.507 12.2137 63.3465 12.2744 63.0257Z" fill="#3F3F3F"/>
    <path d="M13.664 61.3211H13.2007V60.8752H13.664V61.3211ZM13.664 63.8205H13.2007V61.6875H13.664V63.8205Z" fill="#3F3F3F"/>
    <path d="M16.1622 61.6875L15.3623 62.4691L16.2357 63.8205H15.6736L15.0381 62.7871L14.7614 63.0519V63.8205H14.2988V60.8749H14.7614V62.5575C14.836 62.4691 14.8837 62.4146 14.9038 62.3939L15.5975 61.6875H16.1622Z" fill="#3F3F3F"/>
    <path d="M19.539 61.6876L18.791 63.8205H18.2765L17.5112 61.6876H18.0128L18.337 62.6503C18.4206 62.8976 18.4897 63.1405 18.5446 63.3789C18.5848 63.1964 18.654 62.9519 18.7521 62.6459L19.0634 61.6876H19.539Z" fill="#3F3F3F"/>
    <path d="M20.2004 62.3544H19.7594C19.8141 62.1276 19.925 61.9503 20.0923 61.8223C20.2595 61.6942 20.4642 61.63 20.7063 61.63C21.0147 61.63 21.2634 61.7311 21.4521 61.9325C21.6408 62.1343 21.7352 62.3999 21.7352 62.7297C21.7352 63.0652 21.6402 63.3407 21.45 63.5556C21.2598 63.7705 21.0161 63.8779 20.7193 63.8779C20.408 63.8779 20.1652 63.7682 19.9908 63.549C19.8163 63.3297 19.7305 63.0272 19.7335 62.6412H21.277C21.2598 62.1998 21.0695 61.9791 20.7063 61.9791C20.4583 61.9791 20.2897 62.1041 20.2004 62.3544ZM21.2684 62.955H20.1917C20.2061 63.1286 20.261 63.2679 20.3561 63.3723C20.4512 63.4768 20.5722 63.5291 20.7193 63.5291C21.0362 63.5291 21.2193 63.3376 21.2684 62.955Z" fill="#3F3F3F"/>
    <path d="M24.6838 60.8041C25.093 60.8041 25.4253 60.947 25.6804 61.2325C25.9355 61.5179 26.063 61.8904 26.063 62.3497C26.063 62.809 25.9355 63.1806 25.6804 63.4648C25.4253 63.7489 25.0917 63.8909 24.6794 63.8909C24.2673 63.8909 23.9336 63.7489 23.6786 63.4648C23.4235 63.1806 23.2959 62.8075 23.2959 62.3453C23.2959 61.8861 23.4241 61.5143 23.6807 61.2302C23.9373 60.946 24.2715 60.8041 24.6838 60.8041ZM24.6838 61.2369C24.4129 61.2369 24.198 61.3374 24.0396 61.5383C23.8811 61.7394 23.8018 62.0099 23.8018 62.3497C23.8018 62.6838 23.8818 62.952 24.0417 63.1545C24.2017 63.3569 24.4157 63.4582 24.6838 63.4582C24.949 63.4582 25.1609 63.3576 25.3193 63.1566C25.4778 62.9558 25.5572 62.6851 25.5572 62.3453C25.5572 62.0083 25.4778 61.7394 25.3193 61.5383C25.1609 61.3374 24.949 61.2369 24.6838 61.2369Z" fill="#3F3F3F"/>
    <path d="M27.5155 61.6477V62.0982C27.4376 62.0922 27.3828 62.0894 27.3512 62.0894C27.1061 62.0894 26.9334 62.1952 26.8324 62.4064C26.7805 62.5151 26.7545 62.7017 26.7545 62.9659V63.8204H26.292V61.6875H26.7243V62.1115C26.8856 61.7994 27.1221 61.6433 27.4334 61.6433C27.4621 61.6433 27.4895 61.6447 27.5155 61.6477Z" fill="#3F3F3F"/>
    <path d="M28.9598 61.6854V62.0296H28.5403V63.1515C28.5403 63.3281 28.5763 63.4282 28.6484 63.4516C28.6801 63.4604 28.7262 63.4651 28.7867 63.4651C28.8328 63.4651 28.8906 63.4604 28.9598 63.4516V63.8228C28.8473 63.8344 28.7479 63.8404 28.6614 63.8404C28.3905 63.8404 28.2177 63.7726 28.1427 63.6371C28.0994 63.5577 28.0777 63.3604 28.0777 63.0455V62.0296H27.7275V61.6854H28.0777V61.0449H28.5403V61.6854H28.9598Z" fill="#3F3F3F"/>
    <path d="M29.7683 62.3498H29.3359C29.3792 61.8701 29.6904 61.63 30.2698 61.63C30.5984 61.63 30.8347 61.7051 30.9789 61.8553C31.0712 61.9524 31.1173 62.1025 31.1173 62.3057C31.1173 62.3882 31.1157 62.4895 31.1129 62.6104C31.1129 62.631 31.1115 62.6884 31.1086 62.7826L31.1043 62.8709V62.9593V63.127C31.1013 63.1829 31.0999 63.214 31.0999 63.2198C31.0999 63.3523 31.1065 63.434 31.1194 63.4649C31.1324 63.4958 31.1661 63.5113 31.221 63.5113C31.2555 63.5113 31.2887 63.5084 31.3204 63.5024V63.8336C31.1936 63.8661 31.0928 63.8823 31.0178 63.8823C30.8218 63.8823 30.7108 63.797 30.6849 63.6262C30.4916 63.797 30.2452 63.8823 29.9456 63.8823C29.7322 63.8823 29.5621 63.825 29.4353 63.71C29.3085 63.5952 29.2451 63.4406 29.2451 63.2463C29.2451 62.9901 29.356 62.809 29.578 62.7031C29.679 62.6531 29.7928 62.6221 29.9196 62.6104L30.0061 62.6015L30.0925 62.5883L30.1791 62.5796C30.398 62.556 30.5335 62.5295 30.5854 62.4999C30.6373 62.4706 30.6633 62.4058 30.6633 62.3057C30.6633 62.0879 30.522 61.9789 30.2396 61.9789C30.0867 61.9789 29.975 62.0068 29.9045 62.0629C29.8339 62.1188 29.7884 62.2144 29.7683 62.3498ZM30.6633 63.0079V62.7563C30.5759 62.8033 30.4117 62.8429 30.1702 62.8753C29.9986 62.899 29.8786 62.9365 29.8103 62.9879C29.7419 63.0396 29.7078 63.1198 29.7078 63.2287C29.7078 63.4406 29.8356 63.5466 30.0916 63.5466C30.208 63.5466 30.3149 63.5253 30.4124 63.4826C30.5098 63.4399 30.579 63.3847 30.6195 63.317C30.6486 63.2668 30.6633 63.164 30.6633 63.0079Z" fill="#3F3F3F"/>
    <path d="M32.9849 60.8749H34.2257C34.5197 60.8749 34.7316 60.9087 34.8613 60.9765C34.9765 61.0353 35.0688 61.1223 35.138 61.2371C35.2072 61.3519 35.2418 61.474 35.2418 61.6036C35.2418 61.9067 35.1049 62.1173 34.831 62.2351C35.1913 62.338 35.3715 62.5795 35.3715 62.9591C35.3715 63.2919 35.2302 63.5392 34.9478 63.7012C34.8094 63.7805 34.6192 63.8205 34.377 63.8205H32.9849V60.8749ZM33.4907 61.2944V62.0981H34.1306C34.2977 62.0981 34.4203 62.0849 34.4981 62.0586C34.6566 62.0058 34.7359 61.8844 34.7359 61.6941C34.7359 61.4979 34.658 61.375 34.5024 61.3252C34.439 61.3047 34.3208 61.2944 34.1479 61.2944H33.4907ZM33.4907 62.4735V63.401H34.1998C34.4332 63.401 34.5933 63.3729 34.6797 63.3171C34.8036 63.2344 34.8656 63.1079 34.8656 62.937C34.8656 62.7164 34.7748 62.5751 34.5933 62.5131C34.5154 62.4869 34.3684 62.4735 34.1522 62.4735H33.4907Z" fill="#3F3F3F"/>
    <path d="M36.3754 61.3211H35.9121V60.8752H36.3754V61.3211ZM36.3754 63.8205H35.9121V61.6875H36.3754V63.8205Z" fill="#3F3F3F"/>
    <path d="M38.6231 61.6876V62.0135L37.6331 63.216C37.6043 63.2512 37.5321 63.3276 37.4169 63.4452H37.6936H38.688V63.8205H36.8418V63.4637L37.806 62.2964C37.8607 62.2318 37.94 62.154 38.0438 62.0629H37.8363H36.9239V61.6876H38.6231Z" fill="#3F3F3F"/>
    <path d="M39.531 61.6876V62.0011C39.7126 61.7538 39.9445 61.63 40.2271 61.63C40.5125 61.63 40.7142 61.7302 40.8324 61.9305C40.9016 62.0482 40.9361 62.2248 40.9361 62.4604V63.8206H40.4735V62.5796C40.4735 62.4205 40.4606 62.3043 40.4346 62.2306C40.3856 62.0923 40.2632 62.0231 40.0671 62.0231C39.8538 62.0231 39.7067 62.1144 39.6261 62.297C39.5828 62.394 39.5612 62.5459 39.5612 62.7518V63.8206H39.0986V61.6876H39.531Z" fill="#3F3F3F"/>
    <path d="M42.9768 63.1537H43.4177C43.3631 63.3805 43.2519 63.5578 43.0848 63.6859C42.9175 63.8139 42.7129 63.8779 42.4708 63.8779C42.1624 63.8779 41.9138 63.7771 41.725 63.5755C41.5363 63.3739 41.4419 63.1082 41.4419 62.7784C41.4419 62.4428 41.537 62.1675 41.7273 61.9526C41.9175 61.7377 42.1611 61.63 42.4579 61.63C42.7692 61.63 43.012 61.7399 43.1864 61.9592C43.3607 62.1785 43.4464 62.481 43.4437 62.8667H41.9001C41.9175 63.3083 42.1077 63.5291 42.4708 63.5291C42.7188 63.5291 42.8874 63.404 42.9768 63.1537ZM41.9088 62.5531H42.9854C42.9709 62.3796 42.9162 62.2404 42.8211 62.1358C42.726 62.0314 42.6049 61.9791 42.4579 61.9791C42.1407 61.9791 41.9577 62.1705 41.9088 62.5531Z" fill="#3F3F3F"/>
    <path d="M45.5451 62.3058H45.1056C45.0768 62.0851 44.9288 61.9747 44.6617 61.9747C44.409 61.9747 44.2826 62.057 44.2826 62.222C44.2826 62.3043 44.3136 62.3633 44.3753 62.3986C44.4369 62.4339 44.5828 62.4767 44.8128 62.5266C45.1144 62.5944 45.3248 62.6761 45.444 62.7717C45.5632 62.8676 45.6229 63.0036 45.6229 63.1802C45.6229 63.3951 45.5408 63.5651 45.3764 63.6903C45.2122 63.8154 44.9874 63.8779 44.702 63.8779C44.1082 63.8779 43.7984 63.6307 43.7725 63.1361H44.2135C44.2422 63.3982 44.4107 63.5291 44.7193 63.5291C44.8576 63.5291 44.9671 63.5011 45.0478 63.4452C45.1285 63.3894 45.1689 63.3143 45.1689 63.22C45.1689 63.1374 45.1372 63.0765 45.0738 63.0367C45.0104 62.997 44.8764 62.9521 44.6718 62.9021C44.444 62.8461 44.3055 62.8108 44.2567 62.7961C44.1903 62.7755 44.1283 62.749 44.0708 62.7166C43.9035 62.6194 43.82 62.4677 43.82 62.2617C43.82 62.0644 43.8956 61.9099 44.047 61.7979C44.1983 61.6862 44.4052 61.63 44.6675 61.63C45.215 61.63 45.5075 61.8555 45.5451 62.3058Z" fill="#3F3F3F"/>
    <path d="M46.5918 61.3211H46.1284V60.8752H46.5918V61.3211ZM46.5918 63.8205H46.1284V61.6875H46.5918V63.8205Z" fill="#3F3F3F"/>
    <path d="M47.6589 61.6876V62.0011C47.8405 61.7538 48.0724 61.63 48.355 61.63C48.6403 61.63 48.842 61.7302 48.9603 61.9305C49.0294 62.0482 49.064 62.2248 49.064 62.4604V63.8206H48.6014V62.5796C48.6014 62.4205 48.5885 62.3043 48.5624 62.2306C48.5134 62.0923 48.3911 62.0231 48.1951 62.0231C47.9817 62.0231 47.8346 62.1144 47.754 62.297C47.7108 62.394 47.6891 62.5459 47.6891 62.7518V63.8206H47.2266V61.6876H47.6589Z" fill="#3F3F3F"/>
    <path d="M2.15589 55.6094L3.26274 58.555H2.72236L2.4456 57.7734H1.30847L1.02317 58.555H0.5L1.61552 55.6094H2.15589ZM2.31592 57.3803L2.07812 56.7223C2.00887 56.5339 1.94257 56.3279 1.8792 56.104C1.83884 56.2425 1.77114 56.4456 1.67602 56.7135L1.43821 57.3803H2.31592Z" fill="#3F3F3F"/>
    <path d="M5.25591 56.4223V56.7483L4.2658 57.9508C4.23706 57.9859 4.16487 58.0624 4.04961 58.1799H4.32637H5.32082V58.5553H3.47461V58.1984L4.43877 57.0311C4.49346 56.9665 4.57278 56.8887 4.6765 56.7977H4.46898H3.55679V56.4223H5.25591Z" fill="#3F3F3F"/>
    <path d="M6.0344 57.0889H5.59341C5.6481 56.8621 5.7591 56.6848 5.92634 56.5568C6.09342 56.4287 6.29815 56.3645 6.54029 56.3645C6.84882 56.3645 7.09736 56.4656 7.28613 56.667C7.47483 56.8688 7.56922 57.1344 7.56922 57.4643C7.56922 57.7998 7.47417 58.0753 7.284 58.2901C7.09376 58.505 6.85014 58.6124 6.55331 58.6124C6.24199 58.6124 5.99919 58.5027 5.82475 58.2835C5.65031 58.0642 5.56445 57.7617 5.56746 57.3758H7.11103C7.09376 56.9344 6.90351 56.7136 6.54029 56.7136C6.29242 56.7136 6.12371 56.8386 6.0344 57.0889ZM7.10236 57.6895H6.0258C6.04006 57.8631 6.09497 58.0024 6.1901 58.1068C6.28522 58.2112 6.40621 58.2636 6.55331 58.2636C6.87021 58.2636 7.05332 58.0721 7.10236 57.6895Z" fill="#3F3F3F"/>
    <path d="M9.27233 56.3825V56.8329C9.19449 56.827 9.13965 56.824 9.10804 56.824C8.86296 56.824 8.69013 56.9299 8.5892 57.1411C8.53731 57.2499 8.51143 57.4364 8.51143 57.7007V58.5552H8.04883V56.4222H8.48114V56.8462C8.64242 56.5342 8.87891 56.3781 9.19022 56.3781C9.21897 56.3781 9.24638 56.3794 9.27233 56.3825Z" fill="#3F3F3F"/>
    <path d="M10.0944 55.6097V56.7004C10.2582 56.4765 10.4854 56.3647 10.7757 56.3647C11.0544 56.3647 11.278 56.4664 11.4461 56.6696C11.6143 56.8725 11.6984 57.1418 11.6984 57.4777C11.6984 57.8193 11.6108 58.0937 11.4354 58.3011C11.2599 58.5086 11.0286 58.6124 10.7411 58.6124C10.4306 58.6124 10.205 58.4963 10.0641 58.2637V58.5552H9.63184V55.6097H10.0944ZM10.6651 56.7402C10.4863 56.7402 10.3443 56.8064 10.2393 56.9389C10.1339 57.0712 10.0815 57.2509 10.0815 57.4777C10.0815 57.7132 10.1333 57.8985 10.2371 58.0339C10.3408 58.1695 10.4805 58.2371 10.6565 58.2371C10.8323 58.2371 10.9727 58.1686 11.0781 58.0317C11.183 57.895 11.2358 57.7117 11.2358 57.4819C11.2358 57.2554 11.1846 57.0751 11.0823 56.9411C10.9801 56.8071 10.8409 56.7402 10.6651 56.7402Z" fill="#3F3F3F"/>
    <path d="M12.593 57.0848H12.1607C12.2039 56.605 12.5151 56.365 13.0946 56.365C13.4231 56.365 13.6594 56.4401 13.8036 56.5902C13.896 56.6874 13.942 56.8375 13.942 57.0407C13.942 57.1232 13.9404 57.2245 13.9376 57.3454C13.9376 57.3659 13.9361 57.4235 13.9333 57.5176L13.929 57.6059V57.6942V57.8621C13.926 57.9179 13.9247 57.949 13.9247 57.9547C13.9247 58.0872 13.9312 58.169 13.9441 58.1999C13.9571 58.2308 13.9909 58.2462 14.0457 58.2462C14.0803 58.2462 14.1134 58.2433 14.1452 58.2374V58.5685C14.0183 58.6011 13.9175 58.6172 13.8425 58.6172C13.6465 58.6172 13.5355 58.5319 13.5097 58.3612C13.3163 58.5319 13.0699 58.6172 12.7702 58.6172C12.5569 58.6172 12.3868 58.56 12.2601 58.445C12.1332 58.3301 12.0698 58.1755 12.0698 57.9812C12.0698 57.7251 12.1808 57.5441 12.4028 57.4382C12.5038 57.3881 12.6175 57.3571 12.7444 57.3454L12.8308 57.3365L12.9172 57.3233L13.0038 57.3147C13.2228 57.291 13.3582 57.2645 13.4101 57.235C13.462 57.2055 13.488 57.1409 13.488 57.0407C13.488 56.8229 13.3466 56.7138 13.0643 56.7138C12.9114 56.7138 12.7997 56.7418 12.7292 56.7979C12.6585 56.8538 12.6131 56.9494 12.593 57.0848ZM13.488 57.7428V57.4913C13.4007 57.5383 13.2364 57.5779 12.9949 57.6103C12.8233 57.6339 12.7032 57.6714 12.6349 57.7229C12.5666 57.7745 12.5325 57.8547 12.5325 57.9636C12.5325 58.1755 12.6603 58.2816 12.9163 58.2816C13.0327 58.2816 13.1396 58.2603 13.2371 58.2175C13.3345 58.1749 13.4037 58.1197 13.4442 58.0519C13.4734 58.0018 13.488 57.8989 13.488 57.7428Z" fill="#3F3F3F"/>
    <path d="M16.3972 56.4223L15.6233 58.5154C15.4994 58.8511 15.4013 59.0645 15.3292 59.1559C15.2168 59.2999 15.0554 59.3721 14.845 59.3721C14.7586 59.3721 14.6533 59.3632 14.5294 59.3458V58.9526C14.6332 58.9704 14.7125 58.9792 14.7672 58.9792C14.8766 58.9792 14.9559 58.9261 15.005 58.8201C15.0683 58.6847 15.1073 58.5728 15.1218 58.4846L14.3262 56.4223H14.832L15.2384 57.5705C15.2758 57.6765 15.325 57.8412 15.3855 58.0652C15.42 57.9355 15.4719 57.7604 15.5411 57.5394L15.9172 56.4223H16.3972Z" fill="#3F3F3F"/>
    <path d="M18.169 57.7556H18.6242C18.5866 58.0266 18.4837 58.237 18.3149 58.3871C18.1464 58.5374 17.9265 58.6123 17.6558 58.6123C17.3473 58.6123 17.1002 58.5122 16.9142 58.3121C16.7281 58.112 16.6353 57.8454 16.6353 57.5127C16.6353 57.1654 16.729 56.8872 16.9164 56.6781C17.1037 56.4692 17.3545 56.3645 17.6687 56.3645C17.9397 56.3645 18.1574 56.4323 18.3214 56.5677C18.4859 56.7033 18.5823 56.8945 18.6113 57.1418H18.1473C18.0981 56.8739 17.9405 56.74 17.6745 56.74C17.4955 56.74 17.3545 56.8069 17.2518 56.9408C17.1492 57.0749 17.098 57.2581 17.098 57.4907C17.098 57.7233 17.1471 57.9058 17.2453 58.0382C17.3437 58.1708 17.4781 58.237 17.6487 58.237C17.9462 58.237 18.1197 58.0766 18.169 57.7556Z" fill="#3F3F3F"/>
    <path d="M19.4675 57.0848H19.0352C19.0784 56.605 19.3897 56.365 19.9691 56.365C20.2977 56.365 20.534 56.4401 20.6781 56.5902C20.7704 56.6874 20.8165 56.8375 20.8165 57.0407C20.8165 57.1232 20.815 57.2245 20.8122 57.3454C20.8122 57.3659 20.8107 57.4235 20.8078 57.5176L20.8035 57.6059V57.6942V57.8621C20.8005 57.9179 20.7992 57.949 20.7992 57.9547C20.7992 58.0872 20.8056 58.169 20.8186 58.1999C20.8316 58.2308 20.8654 58.2462 20.9203 58.2462C20.9548 58.2462 20.9879 58.2433 21.0197 58.2374V58.5685C20.8928 58.6011 20.792 58.6172 20.717 58.6172C20.521 58.6172 20.4101 58.5319 20.3841 58.3612C20.1909 58.5319 19.9444 58.6172 19.6448 58.6172C19.4314 58.6172 19.2613 58.56 19.1346 58.445C19.0077 58.3301 18.9443 58.1755 18.9443 57.9812C18.9443 57.7251 19.0553 57.5441 19.2773 57.4382C19.3783 57.3881 19.492 57.3571 19.6188 57.3454L19.7053 57.3365L19.7918 57.3233L19.8783 57.3147C20.0973 57.291 20.2327 57.2645 20.2846 57.235C20.3365 57.2055 20.3625 57.1409 20.3625 57.0407C20.3625 56.8229 20.2211 56.7138 19.9388 56.7138C19.786 56.7138 19.6742 56.7418 19.6036 56.7979C19.533 56.8538 19.4876 56.9494 19.4675 57.0848ZM20.3625 57.7428V57.4913C20.2752 57.5383 20.1109 57.5779 19.8695 57.6103C19.6978 57.6339 19.5777 57.6714 19.5094 57.7229C19.441 57.7745 19.407 57.8547 19.407 57.9636C19.407 58.1755 19.5348 58.2816 19.7908 58.2816C19.9072 58.2816 20.0141 58.2603 20.1115 58.2175C20.2089 58.1749 20.2782 58.1197 20.3188 58.0519C20.3479 58.0018 20.3625 57.8989 20.3625 57.7428Z" fill="#3F3F3F"/>
    <path d="M21.9099 56.4221V56.7356C22.0914 56.4883 22.3234 56.3645 22.6059 56.3645C22.8913 56.3645 23.093 56.4647 23.2112 56.665C23.2804 56.7826 23.315 56.9593 23.315 57.1949V58.5551H22.8524V57.3142C22.8524 57.155 22.8394 57.0388 22.8134 56.9651C22.7644 56.8268 22.642 56.7577 22.446 56.7577C22.2326 56.7577 22.0856 56.8489 22.005 57.0315C21.9618 57.1285 21.9401 57.2803 21.9401 57.4863V58.5551H21.4775V56.4221H21.9099Z" fill="#3F3F3F"/>
    <path d="M25.1484 55.6094H26.5147C26.7741 55.6094 26.9757 55.6536 27.12 55.7419C27.362 55.8892 27.4832 56.1172 27.4832 56.4264C27.4832 56.7974 27.3245 57.0402 27.0076 57.1551C27.1431 57.1846 27.2482 57.2582 27.3231 57.3759C27.3723 57.4554 27.4053 57.5585 27.4226 57.685C27.4254 57.7115 27.4325 57.7881 27.4442 57.9147L27.4615 58.0957C27.4816 58.3165 27.5147 58.4565 27.561 58.5152L27.5912 58.555H27.0465C27.0348 58.5344 27.0212 58.4924 27.0054 58.4291C26.9894 58.3659 26.9786 58.2989 26.9729 58.2282L26.9557 57.9632C26.9412 57.7247 26.8893 57.5613 26.8001 57.473C26.7107 57.3847 26.5521 57.3406 26.3244 57.3406H25.6543V58.555H25.1484V55.6094ZM25.6543 56.0422V56.9564H26.32C26.5592 56.9564 26.7286 56.9211 26.8281 56.8509C26.9275 56.7807 26.9773 56.6604 26.9773 56.4906C26.9773 56.1916 26.7799 56.0422 26.3849 56.0422H25.6543Z" fill="#3F3F3F"/>
    <path d="M29.5193 57.8883H29.9603C29.9056 58.1151 29.7945 58.2923 29.6273 58.4204C29.4601 58.5484 29.2555 58.6125 29.0134 58.6125C28.7049 58.6125 28.4564 58.5117 28.2676 58.31C28.0788 58.1084 27.9844 57.8427 27.9844 57.5129C27.9844 57.1773 28.0795 56.902 28.2697 56.6871C28.46 56.4722 28.7036 56.3645 29.0004 56.3645C29.3117 56.3645 29.5546 56.4745 29.7289 56.6937C29.9032 56.913 29.9891 57.2155 29.9862 57.6012H28.4427C28.46 58.0428 28.6502 58.2636 29.0134 58.2636C29.2613 58.2636 29.43 58.1386 29.5193 57.8883ZM28.4513 57.2877H29.5279C29.5135 57.1141 29.4588 56.9749 29.3637 56.8703C29.2685 56.7659 29.1475 56.7136 29.0004 56.7136C28.6834 56.7136 28.5003 56.905 28.4513 57.2877Z" fill="#3F3F3F"/>
    <path d="M32.0871 57.0404H31.6476C31.6188 56.8196 31.4708 56.7092 31.2037 56.7092C30.951 56.7092 30.8246 56.7915 30.8246 56.9565C30.8246 57.0389 30.8556 57.0978 30.9172 57.1331C30.979 57.1684 31.1248 57.2113 31.3548 57.2612C31.6564 57.329 31.8667 57.4107 31.986 57.5063C32.1052 57.6021 32.1649 57.7381 32.1649 57.9148C32.1649 58.1296 32.0827 58.2996 31.9185 58.4248C31.7542 58.55 31.5294 58.6125 31.244 58.6125C30.6502 58.6125 30.3404 58.3652 30.3145 57.8707H30.7554C30.7843 58.1327 30.9528 58.2636 31.2613 58.2636C31.3996 58.2636 31.5091 58.2356 31.5899 58.1798C31.6706 58.1239 31.7109 58.0487 31.7109 57.9545C31.7109 57.8719 31.6792 57.811 31.6158 57.7712C31.5524 57.7315 31.4184 57.6866 31.2138 57.6365C30.986 57.5807 30.8476 57.5453 30.7987 57.5305C30.7324 57.51 30.6703 57.4835 30.6128 57.4511C30.4454 57.3539 30.362 57.2023 30.362 56.9962C30.362 56.799 30.4377 56.6445 30.5889 56.5325C30.7403 56.4207 30.9472 56.3645 31.2094 56.3645C31.757 56.3645 32.0495 56.59 32.0871 57.0404Z" fill="#3F3F3F"/>
    <path d="M38.1814 55.6097V56.7004C38.3452 56.4765 38.5723 56.3647 38.8627 56.3647C39.1413 56.3647 39.365 56.4664 39.5331 56.6696C39.7012 56.8725 39.7854 57.1418 39.7854 57.4777C39.7854 57.8193 39.6978 58.0937 39.5223 58.3011C39.3469 58.5086 39.1156 58.6124 38.8281 58.6124C38.5177 58.6124 38.2919 58.4963 38.1511 58.2637V58.5552H37.7188V55.6097H38.1814ZM38.7521 56.7402C38.5733 56.7402 38.4314 56.8064 38.3262 56.9389C38.221 57.0712 38.1684 57.2509 38.1684 57.4777C38.1684 57.7132 38.2203 57.8985 38.324 58.0339C38.4278 58.1695 38.5675 58.2371 38.7434 58.2371C38.9192 58.2371 39.0597 58.1686 39.165 58.0317C39.2701 57.895 39.3228 57.7117 39.3228 57.4819C39.3228 57.2554 39.2715 57.0751 39.1693 56.9411C39.067 56.8071 38.9278 56.7402 38.7521 56.7402Z" fill="#3F3F3F"/>
    <path d="M37.0856 56.4223V58.5553H36.6533V58.2373C36.4745 58.4875 36.2453 58.6126 35.9657 58.6126C35.7092 58.6126 35.5146 58.5273 35.3821 58.3565C35.2928 58.2386 35.248 58.0504 35.248 57.7913V56.4223H35.7107V57.6412C35.7107 57.8059 35.7222 57.9253 35.7453 57.9987C35.7914 58.1459 35.9152 58.2197 36.1172 58.2197C36.3247 58.2197 36.4717 58.1254 36.5582 57.9371C36.6014 57.8428 36.623 57.6867 36.623 57.4688V56.4223H37.0856Z" fill="#3F3F3F"/>
    <path d="M33.0994 56.4221V56.7047C33.2632 56.4779 33.4903 56.3645 33.7807 56.3645C34.0682 56.3645 34.2995 56.4669 34.475 56.6716C34.6504 56.8763 34.738 57.1476 34.738 57.4864C34.738 57.8277 34.6539 58.1009 34.4858 58.3055C34.3176 58.5102 34.0926 58.6123 33.8109 58.6123C33.5119 58.6123 33.285 58.5005 33.1297 58.2768V59.3455H32.667V56.4221H33.0994ZM33.6917 56.74C33.513 56.74 33.3718 56.8062 33.268 56.9387C33.1643 57.071 33.1124 57.2536 33.1124 57.4864C33.1124 57.7218 33.1649 57.9058 33.2701 58.0384C33.3754 58.1709 33.5203 58.2369 33.7047 58.2369C33.8804 58.2369 34.0196 58.1709 34.1219 58.0384C34.2241 57.9058 34.2754 57.7264 34.2754 57.4996C34.2754 57.2671 34.2228 57.0822 34.1176 56.9454C34.0123 56.8084 33.8705 56.74 33.6917 56.74Z" fill="#3F3F3F"/>
    <rect x="40.3242" y="55.6094" width="0.57981" height="2.94552" fill="#3F3F3F"/>
    <path d="M41.8892 56.0557H41.4258V55.6097H41.8892V56.0557ZM41.8892 58.555H41.4258V56.422H41.8892V58.555Z" fill="#3F3F3F"/>
    <path d="M44.3878 56.4223L43.588 57.2039L44.4613 58.5552H43.8993L43.2637 57.5219L42.987 57.7867V58.5552H42.5244V55.6097H42.987V57.2922C43.0616 57.2039 43.1093 57.1494 43.1293 57.1286L43.8231 56.4223H44.3878Z" fill="#3F3F3F"/>
    <path d="M45.2009 57.0848H44.7685C44.8117 56.605 45.1231 56.365 45.7024 56.365C46.031 56.365 46.2673 56.4401 46.4115 56.5902C46.5037 56.6874 46.5498 56.8375 46.5498 57.0407C46.5498 57.1232 46.5483 57.2245 46.5455 57.3454C46.5455 57.3659 46.544 57.4235 46.5412 57.5176L46.5368 57.6059V57.6942V57.8621C46.5338 57.9179 46.5325 57.949 46.5325 57.9547C46.5325 58.0872 46.539 58.169 46.5519 58.1999C46.565 58.2308 46.5987 58.2462 46.6536 58.2462C46.6881 58.2462 46.7213 58.2433 46.753 58.2374V58.5685C46.6261 58.6011 46.5254 58.6172 46.4504 58.6172C46.2543 58.6172 46.1434 58.5319 46.1175 58.3612C45.9243 58.5319 45.6778 58.6172 45.3781 58.6172C45.1648 58.6172 44.9946 58.56 44.868 58.445C44.7411 58.3301 44.6777 58.1755 44.6777 57.9812C44.6777 57.7251 44.7886 57.5441 45.0107 57.4382C45.1115 57.3881 45.2253 57.3571 45.3522 57.3454L45.4386 57.3365L45.5251 57.3233L45.6116 57.3147C45.8306 57.291 45.9661 57.2645 46.018 57.235C46.0699 57.2055 46.0958 57.1409 46.0958 57.0407C46.0958 56.8229 45.9545 56.7138 45.6721 56.7138C45.5193 56.7138 45.4075 56.7418 45.337 56.7979C45.2664 56.8538 45.221 56.9494 45.2009 57.0848ZM46.0958 57.7428V57.4913C46.0086 57.5383 45.8443 57.5779 45.6028 57.6103C45.4312 57.6339 45.3112 57.6714 45.2427 57.7229C45.1745 57.7745 45.1403 57.8547 45.1403 57.9636C45.1403 58.1755 45.2682 58.2816 45.5241 58.2816C45.6405 58.2816 45.7475 58.2603 45.8449 58.2175C45.9423 58.1749 46.0116 58.1197 46.0521 58.0519C46.0812 58.0018 46.0958 57.8989 46.0958 57.7428Z" fill="#3F3F3F"/>
    <path d="M48.8063 57.0404H48.3668C48.3381 56.8196 48.19 56.7092 47.923 56.7092C47.6703 56.7092 47.5439 56.7915 47.5439 56.9565C47.5439 57.0389 47.5748 57.0978 47.6365 57.1331C47.6982 57.1684 47.844 57.2113 48.074 57.2612C48.3756 57.329 48.586 57.4107 48.7052 57.5063C48.8245 57.6021 48.8842 57.7381 48.8842 57.9148C48.8842 58.1296 48.8021 58.2996 48.6378 58.4248C48.4735 58.55 48.2486 58.6125 47.9633 58.6125C47.3694 58.6125 47.0597 58.3652 47.0337 57.8707H47.4748C47.5035 58.1327 47.6721 58.2636 47.9805 58.2636C48.1189 58.2636 48.2283 58.2356 48.3091 58.1798C48.3898 58.1239 48.4302 58.0487 48.4302 57.9545C48.4302 57.8719 48.3985 57.811 48.3351 57.7712C48.2718 57.7315 48.1377 57.6866 47.933 57.6365C47.7051 57.5807 47.5669 57.5453 47.5179 57.5305C47.4516 57.51 47.3896 57.4835 47.332 57.4511C47.1647 57.3539 47.0813 57.2023 47.0813 56.9962C47.0813 56.799 47.1569 56.6445 47.3083 56.5325C47.4596 56.4207 47.6664 56.3645 47.9287 56.3645C48.4763 56.3645 48.7688 56.59 48.8063 57.0404Z" fill="#3F3F3F"/>
    <rect x="49.3857" y="56.4221" width="0.57981" height="2.13297" fill="#3F3F3F"/>
    <path d="M50.7859 56.4221V56.7356C50.9676 56.4883 51.1995 56.3645 51.482 56.3645C51.7674 56.3645 51.969 56.4647 52.0874 56.665C52.1565 56.7826 52.1911 56.9593 52.1911 57.1949V58.5551H51.7284V57.3142C51.7284 57.155 51.7155 57.0388 51.6896 56.9651C51.6405 56.8268 51.5181 56.7577 51.3221 56.7577C51.1087 56.7577 50.9617 56.8489 50.881 57.0315C50.8378 57.1285 50.8162 57.2803 50.8162 57.4863V58.5551H50.3535V56.4221H50.7859Z" fill="#3F3F3F"/>
    <rect x="52.6948" y="56.4221" width="0.57981" height="2.13297" fill="#3F3F3F"/>
    <path d="M54.0949 56.4221V56.7356C54.2766 56.4883 54.5085 56.3645 54.7911 56.3645C55.0764 56.3645 55.2781 56.4647 55.3964 56.665C55.4654 56.7826 55.5001 56.9593 55.5001 57.1949V58.5551H55.0375V57.3142C55.0375 57.155 55.0245 57.0388 54.9985 56.9651C54.9495 56.8268 54.8272 56.7577 54.6311 56.7577C54.4177 56.7577 54.2707 56.8489 54.1901 57.0315C54.1468 57.1285 54.1251 57.2803 54.1251 57.4863V58.5551H53.6626V56.4221H54.0949Z" fill="#3F3F3F"/>
    <path d="M12.6091 69.0857H12.1025V66.1401H12.6091V69.0857ZM12.5918 65.7516H12.1458V65.3011H12.5918V65.7516Z" fill="#3F3F3F"/>
    <path d="M13.7112 66.9533V67.2669C13.8928 67.0195 14.1248 66.8958 14.4073 66.8958C14.6926 66.8958 14.8943 66.996 15.0126 67.1961C15.0817 67.3139 15.1163 67.4906 15.1163 67.7262V69.0862H14.6537V67.8453C14.6537 67.6862 14.6408 67.5701 14.6148 67.4963C14.5658 67.358 14.4434 67.2889 14.2473 67.2889C14.034 67.2889 13.887 67.3801 13.8063 67.5627C13.7631 67.6596 13.7414 67.8116 13.7414 68.0176V69.0862H13.2788V66.9533H13.7112Z" fill="#3F3F3F"/>
    <path d="M17.6062 66.9531L16.8063 67.7348L17.6797 69.086H17.1176L16.482 68.0527L16.2053 68.3175V69.086H15.7427V66.1405H16.2053V67.8231C16.28 67.7348 16.3275 67.6802 16.3477 67.6594L17.0415 66.9531H17.6062Z" fill="#3F3F3F"/>
    <path d="M18.5194 66.5866H18.0562V66.1405H18.5194V66.5866ZM18.5194 69.0859H18.0562V66.9528H18.5194V69.0859Z" fill="#3F3F3F"/>
    <path d="M20.7453 67.5711H20.3043C20.2754 67.3503 20.1271 67.2399 19.859 67.2399C19.6054 67.2399 19.4786 67.3223 19.4786 67.4872C19.4786 67.5696 19.5094 67.6285 19.5715 67.6639C19.6333 67.6992 19.7797 67.742 20.0103 67.7919C20.313 67.8597 20.524 67.9414 20.6437 68.037C20.7633 68.1328 20.8231 68.2689 20.8231 68.4455C20.8231 68.6603 20.741 68.8312 20.5767 68.9578C20.4354 69.0609 20.2509 69.1212 20.0233 69.1387L19.8806 69.3464C19.9468 69.3346 19.9987 69.3287 20.0363 69.3287C20.137 69.3287 20.2192 69.3552 20.2827 69.4082C20.346 69.4612 20.3778 69.5303 20.3778 69.6158C20.3778 69.7335 20.3346 69.8269 20.2481 69.8962C20.1617 69.9653 20.042 70 19.8892 70C19.7537 70 19.6125 69.9706 19.4655 69.9116L19.5391 69.7483C19.64 69.7895 19.7364 69.8101 19.8287 69.8101C19.9786 69.8101 20.0536 69.7556 20.0536 69.6467C20.0536 69.5436 19.9857 69.4921 19.8504 69.4921C19.8099 69.4921 19.7611 69.5023 19.7033 69.523L19.6255 69.4479L19.8417 69.1432C19.2853 69.1256 18.9957 68.8783 18.9727 68.4014H19.4136C19.4424 68.6635 19.611 68.7944 19.9195 68.7944C20.0578 68.7944 20.1673 68.7663 20.2481 68.7105C20.3288 68.6546 20.3691 68.5795 20.3691 68.4853C20.3691 68.4027 20.3374 68.3417 20.2741 68.302C20.2106 68.2622 20.0766 68.2174 19.8719 68.1673C19.6441 68.1114 19.5058 68.0761 19.4569 68.0613C19.3906 68.0408 19.3285 68.0142 19.271 67.9819C19.1037 67.8847 19.0202 67.733 19.0202 67.527C19.0202 67.3298 19.0959 67.1752 19.2472 67.0633C19.3986 66.9515 19.6054 66.8953 19.8676 66.8953C20.4152 66.8953 20.7077 67.1207 20.7453 67.5711Z" fill="#3F3F3F"/>
    <path d="M21.697 67.6156H21.2646C21.3078 67.1357 21.6192 66.8958 22.1985 66.8958C22.5271 66.8958 22.7633 66.9708 22.9076 67.1209C22.9999 67.2181 23.0459 67.3683 23.0459 67.5714C23.0459 67.6539 23.0444 67.7554 23.0416 67.8762C23.0416 67.8967 23.0401 67.9542 23.0373 68.0484L23.0329 68.1366V68.225V68.3928C23.0299 68.4487 23.0286 68.4798 23.0286 68.4856C23.0286 68.6181 23.0351 68.6998 23.048 68.7306C23.0611 68.7616 23.0948 68.777 23.1496 68.777C23.1843 68.777 23.2173 68.7741 23.2491 68.7682V69.0994C23.1222 69.1318 23.0214 69.148 22.9464 69.148C22.7504 69.148 22.6395 69.0627 22.6136 68.8919C22.4203 69.0627 22.1739 69.148 21.8742 69.148C21.6609 69.148 21.4908 69.0907 21.3641 68.9757C21.2372 68.8609 21.1738 68.7063 21.1738 68.5121C21.1738 68.256 21.2847 68.0749 21.5067 67.9688C21.6077 67.9189 21.7214 67.8878 21.8483 67.8762L21.9347 67.8673L22.0212 67.854L22.1076 67.8454C22.3267 67.8218 22.4622 67.7952 22.5141 67.7658C22.566 67.7363 22.5919 67.6716 22.5919 67.5714C22.5919 67.3537 22.4506 67.2446 22.1682 67.2446C22.0154 67.2446 21.9036 67.2727 21.8331 67.3288C21.7625 67.3845 21.7171 67.4802 21.697 67.6156ZM22.5919 68.2736V68.022C22.5047 68.0691 22.3404 68.1086 22.0989 68.1411C21.9273 68.1647 21.8073 68.2022 21.7388 68.2537C21.6705 68.3053 21.6364 68.3855 21.6364 68.4944C21.6364 68.7063 21.7643 68.8124 22.0202 68.8124C22.1366 68.8124 22.2435 68.7911 22.3409 68.7483C22.4385 68.7056 22.5077 68.6505 22.5482 68.5827C22.5773 68.5326 22.5919 68.4297 22.5919 68.2736Z" fill="#3F3F3F"/>
    <path d="M24.6887 66.1358V66.5023C24.6095 66.4935 24.5445 66.4891 24.4938 66.4891C24.4062 66.4891 24.3454 66.5082 24.3115 66.5464C24.2776 66.5849 24.2606 66.651 24.2606 66.7452V66.9529H24.6498V67.2972H24.2606V69.0857H23.798V67.2972H23.4521V66.9529H23.798V66.8249C23.798 66.5776 23.8397 66.4067 23.9233 66.3125C24.0357 66.1859 24.2087 66.1225 24.4422 66.1225C24.5028 66.1225 24.5849 66.127 24.6887 66.1358Z" fill="#3F3F3F"/>
    <rect x="25.082" y="66.9528" width="0.57981" height="2.13304" fill="#3F3F3F"/>
    <path d="M28.7652 66.14L29.872 69.0856H29.3317L29.055 68.3039H27.9178L27.6325 69.0856H27.1094L28.2248 66.14H28.7652ZM28.9252 67.9109L28.6873 67.2529C28.6182 67.0645 28.5519 66.8585 28.4885 66.6346C28.4482 66.773 28.3805 66.9762 28.2853 67.2441L28.0475 67.9109H28.9252Z" fill="#3F3F3F"/>
    <path d="M32.1592 66.9533V68.8388C32.1592 69.1481 32.113 69.3776 32.0209 69.5276C31.8594 69.7898 31.5697 69.9209 31.1518 69.9209C30.584 69.9209 30.2713 69.7028 30.2136 69.2673H30.6806C30.7238 69.4793 30.8853 69.5852 31.1649 69.5852C31.3579 69.5852 31.4978 69.535 31.5842 69.4349C31.6707 69.3349 31.7139 69.176 31.7139 68.9582V68.7063C31.5697 68.9449 31.3492 69.0641 31.0524 69.0641C30.7757 69.0641 30.5552 68.9677 30.3909 68.7749C30.2266 68.5821 30.1445 68.3237 30.1445 67.9997C30.1445 67.6672 30.2302 67.4 30.4017 67.1982C30.5732 66.9968 30.8016 66.8958 31.087 66.8958C31.3579 66.8958 31.5713 67.0149 31.7269 67.2536V66.9533H32.1592ZM31.1497 67.2713C30.9819 67.2713 30.8493 67.3353 30.7525 67.4634C30.6554 67.5914 30.6071 67.7643 30.6071 67.9823C30.6071 68.2002 30.6554 68.3722 30.7525 68.4989C30.8493 68.6254 30.9819 68.6888 31.1497 68.6888C31.3233 68.6888 31.4607 68.6248 31.562 68.4967C31.6633 68.3687 31.7139 68.1942 31.7139 67.9734C31.7139 67.7527 31.664 67.5802 31.5642 67.4567C31.4643 67.3329 31.3263 67.2713 31.1497 67.2713Z" fill="#3F3F3F"/>
    <path d="M34.2086 68.419H34.6496C34.5949 68.6457 34.4839 68.8231 34.3168 68.9511C34.1495 69.0792 33.945 69.1432 33.7028 69.1432C33.3944 69.1432 33.1458 69.0424 32.9571 68.8407C32.7683 68.6391 32.6738 68.3735 32.6738 68.0436C32.6738 67.708 32.7689 67.4326 32.9592 67.2178C33.1494 67.0029 33.393 66.8953 33.6898 66.8953C34.0011 66.8953 34.2439 67.0052 34.4184 67.2244C34.5927 67.4438 34.6784 67.7462 34.6756 68.132H33.1321C33.1494 68.5736 33.3396 68.7944 33.7028 68.7944C33.9508 68.7944 34.1193 68.6693 34.2086 68.419ZM33.1408 67.8184H34.2173C34.2028 67.6448 34.1481 67.5056 34.053 67.4011C33.9578 67.2966 33.8368 67.2443 33.6898 67.2443C33.3727 67.2443 33.1896 67.4357 33.1408 67.8184Z" fill="#3F3F3F"/>
    <path d="M35.614 66.9533V67.2669C35.7955 67.0195 36.0276 66.8958 36.3101 66.8958C36.5955 66.8958 36.7972 66.996 36.9154 67.1961C36.9846 67.3139 37.0192 67.4906 37.0192 67.7262V69.0862H36.5565V67.8453C36.5565 67.6862 36.5436 67.5701 36.5176 67.4963C36.4686 67.358 36.3462 67.2889 36.1501 67.2889C35.9367 67.2889 35.7897 67.3801 35.7091 67.5627C35.6659 67.6596 35.6442 67.8116 35.6442 68.0176V69.0862H35.1816V66.9533H35.614Z" fill="#3F3F3F"/>
    <path d="M38.5969 66.9528V67.2971H38.1775V68.419C38.1775 68.5956 38.2134 68.6956 38.2856 68.7191C38.3172 68.7279 38.3635 68.7325 38.424 68.7325C38.47 68.7325 38.5277 68.7279 38.5969 68.7191V69.0902C38.4845 69.1017 38.3851 69.1078 38.2986 69.1078C38.0277 69.1078 37.8548 69.0401 37.7798 68.9046C37.7366 68.8251 37.7149 68.6278 37.7149 68.313V67.2971H37.3647V66.9528H37.7149V66.3123H38.1775V66.9528H38.5969Z" fill="#3F3F3F"/>
    <rect x="39.0771" y="66.14" width="0.57981" height="2.94559" fill="#3F3F3F"/>
    <path d="M40.6425 66.5866H40.1792V66.1405H40.6425V66.5866ZM40.6425 69.0859H40.1792V66.9528H40.6425V69.0859Z" fill="#3F3F3F"/>
    <path d="M43.072 66.9528L42.2981 69.0459C42.1742 69.3817 42.076 69.595 42.0041 69.6863C41.8917 69.8304 41.7302 69.9026 41.5199 69.9026C41.4333 69.9026 41.3281 69.8937 41.2042 69.8763V69.483C41.3079 69.5009 41.3873 69.5098 41.442 69.5098C41.5514 69.5098 41.6307 69.4565 41.6799 69.3506C41.7431 69.2152 41.7821 69.1033 41.7966 69.0151L41.001 66.9528H41.5069L41.9133 68.101C41.9506 68.207 41.9998 68.3717 42.0602 68.5956C42.0949 68.466 42.1468 68.2909 42.2159 68.07L42.592 66.9528H43.072Z" fill="#3F3F3F"/>
    <path d="M43.8983 66.5866H43.4351V66.1405H43.8983V66.5866ZM43.8983 69.0859H43.4351V66.9528H43.8983V69.0859Z" fill="#3F3F3F"/>
    <path fill-rule="evenodd" clip-rule="evenodd" d="M40.9721 36.6653C40.7769 36.6653 40.6185 36.8269 40.6183 37.0261C40.613 44.1538 34.9345 49.9489 27.9572 49.9486H27.9477C20.9662 49.9432 15.2907 44.1375 15.296 37.0068C15.3021 28.6606 20.5045 22.336 26.1253 16.7449L26.1259 16.7443L26.5696 16.3033L27.2843 16.1039L27.9962 17.375L28.7079 16.1039L30.0938 16.489L29.7166 15.0734L30.9611 14.3465L29.7166 13.6196L30.0938 12.2088L28.7079 12.5939L27.9962 11.3229L27.2843 12.5939L25.9033 12.2088L26.2804 13.6196L25.0359 14.3465L26.2804 15.0734L26.0958 15.7664L25.6328 16.2267L25.6319 16.2276C19.9001 21.9288 14.5954 28.3924 14.5889 37.0062C14.5834 44.5353 20.5758 50.6652 27.9472 50.6707H27.9573C35.3237 50.6703 41.3197 44.552 41.3254 37.0268C41.3254 36.8272 41.1672 36.6654 40.9721 36.6653Z" fill="#3F3F3F"/>
    <path fill-rule="evenodd" clip-rule="evenodd" d="M29.1793 11.3359C29.3849 11.4272 29.6069 11.4077 29.7934 11.277C31.3865 10.1653 32.7063 8.59524 33.5433 6.65809C34.3757 4.71621 34.6114 2.66493 34.3363 0.713369C34.3032 0.486467 34.1704 0.305366 33.9646 0.214215C33.7592 0.122989 33.5372 0.14236 33.3505 0.273155C31.7575 1.38476 30.4377 2.9501 29.6055 4.89213C28.7684 6.82913 28.5324 8.8804 28.8078 10.8367C28.8407 11.0637 28.9737 11.2447 29.1793 11.3359Z" fill="#3F3F3F"/>
    <path fill-rule="evenodd" clip-rule="evenodd" d="M26.8163 17.3618C26.6107 17.2705 26.3887 17.29 26.2021 17.4207C24.6091 18.5323 23.2894 20.0977 22.4569 22.0398C21.6198 23.9767 21.3841 26.028 21.6593 27.9843C21.6924 28.2114 21.8252 28.3925 22.0309 28.4835C22.2363 28.5747 22.4584 28.5553 22.645 28.4245C24.2381 27.3129 25.5579 25.7428 26.3949 23.8056C27.2273 21.8638 27.4631 19.8125 27.1877 17.8609C27.1548 17.6341 27.0218 17.453 26.8163 17.3618Z" fill="#3F3F3F"/>
    <path fill-rule="evenodd" clip-rule="evenodd" d="M26.139 11.2819C26.3195 11.4187 26.5389 11.4506 26.7473 11.3667C26.9559 11.2826 27.0994 11.1085 27.1407 10.8814C27.4978 8.9446 27.344 6.88116 26.5948 4.90699C25.8389 2.93268 24.5857 1.31185 23.0401 0.130868C22.8594 -0.00585843 22.6402 -0.0377688 22.4318 0.0460992C22.2232 0.130193 22.0796 0.304085 22.0382 0.531287C21.6813 2.46799 21.8319 4.52805 22.5878 6.50244C23.3367 8.47653 24.5901 10.0974 26.139 11.2819Z" fill="#3F3F3F"/>
    <path fill-rule="evenodd" clip-rule="evenodd" d="M29.2476 17.3342C29.0393 17.4183 28.8956 17.5922 28.8542 17.8195C28.4972 19.7561 28.6478 21.8161 29.4036 23.7905C30.1528 25.7647 31.406 27.3855 32.9549 28.5699C33.1355 28.7068 33.3549 28.7387 33.5634 28.6547C33.7717 28.5706 33.9155 28.3966 33.9569 28.1694C34.3137 26.2328 34.1599 24.1693 33.4107 22.1951C32.6549 20.2208 31.4018 18.5999 29.8559 17.419C29.6755 17.2821 29.456 17.2501 29.2476 17.3342Z" fill="#3F3F3F"/>
    <path fill-rule="evenodd" clip-rule="evenodd" d="M18.74 12.7095C20.6366 13.5645 22.6448 13.8054 24.5601 13.5242C24.7824 13.4905 24.9597 13.3547 25.0488 13.1448C25.1382 12.9347 25.1193 12.708 24.9913 12.5174C23.9029 10.8902 22.3656 9.54232 20.469 8.68735C18.5678 7.83703 16.5595 7.59624 14.649 7.8775C14.4266 7.91114 14.2495 8.04696 14.1601 8.25689C14.071 8.46683 14.0897 8.69365 14.2178 8.88414C15.3062 10.5115 16.8387 11.8592 18.74 12.7095Z" fill="#3F3F3F"/>
    <path fill-rule="evenodd" clip-rule="evenodd" d="M37.2572 15.9886C35.356 15.1385 33.3477 14.8975 31.437 15.1787C31.2148 15.2123 31.0375 15.3482 30.9482 15.5582C30.859 15.7681 30.8779 15.9949 31.006 16.1854C32.0943 17.8128 33.6269 19.1605 35.5282 20.0108C37.4246 20.8658 39.4329 21.1067 41.3482 20.8255C41.5704 20.7917 41.7476 20.6561 41.8369 20.4461C41.9262 20.236 41.9074 20.0092 41.7792 19.8187C40.6909 18.1914 39.1537 16.8436 37.2572 15.9886Z" fill="#3F3F3F"/>
    <path fill-rule="evenodd" clip-rule="evenodd" d="M20.3169 19.8771C22.2498 19.112 23.8366 17.8318 24.9963 16.2498C25.1301 16.0654 25.1614 15.8413 25.0791 15.6283C24.997 15.4155 24.8267 15.2688 24.6042 15.2266C22.708 14.862 20.6877 15.0191 18.7549 15.7843C16.822 16.5563 15.2351 17.8362 14.0788 19.4152C13.945 19.5995 13.9137 19.8236 13.9958 20.0365C14.0782 20.2493 14.2485 20.396 14.471 20.4383C16.367 20.803 18.3837 20.6491 20.3169 19.8771Z" fill="#3F3F3F"/>
    <path fill-rule="evenodd" clip-rule="evenodd" d="M42.0045 8.66599C41.9222 8.45312 41.7519 8.30641 41.5294 8.26414C39.6333 7.89946 37.6131 8.05669 35.6803 8.82171C33.7473 9.59364 32.1604 10.8739 31.0042 12.4526C30.8702 12.6371 30.839 12.861 30.9212 13.074C31.0035 13.2869 31.1738 13.4336 31.3963 13.4759C33.2923 13.8404 35.3091 13.6867 37.2422 12.9147C39.175 12.1496 40.7618 10.8694 41.9215 9.2873C42.0556 9.10297 42.0868 8.87877 42.0045 8.66599Z" fill="#3F3F3F"/>
    <path fill-rule="evenodd" clip-rule="evenodd" d="M34.0977 37.8552H35.4314L34.762 36.4852L34.0977 37.8552ZM27.8436 37.0335H29.5118C29.6431 37.0335 29.7937 37.0109 29.8966 36.9203C29.9898 36.839 30.0192 36.7243 30.0192 36.6023C30.0192 36.481 29.9945 36.3554 29.9014 36.2719C29.8003 36.181 29.641 36.1619 29.5118 36.1619H27.8436V37.0335ZM27.8436 38.8715H29.6777C29.8391 38.8715 29.9935 38.8315 30.1088 38.7109C30.2262 38.5878 30.2647 38.4258 30.2647 38.2581C30.2647 38.0907 30.2252 37.9301 30.1088 37.8078C29.9932 37.6865 29.8401 37.6448 29.6777 37.6448H27.8436V38.8715ZM24.5872 38.962C24.964 38.962 25.2875 38.8365 25.5496 38.5581C25.819 38.2718 25.931 37.9189 25.931 37.5248C25.931 37.1319 25.8197 36.7767 25.5507 36.4891C25.2889 36.2093 24.9633 36.0855 24.5872 36.0855C24.2101 36.0855 23.8866 36.2125 23.6248 36.4916C23.3561 36.7781 23.2438 37.1303 23.2438 37.5248C23.2438 37.9189 23.3553 38.2718 23.6248 38.5581C23.8869 38.8361 24.2107 38.962 24.5872 38.962ZM35.723 38.4731H33.8016L33.3154 39.4827H32.6304L34.5171 35.5507H35.0061L36.914 39.4827H36.222L35.723 38.4731ZM31.5655 34.638C31.5655 34.5199 31.6084 34.4174 31.6901 34.3339C31.7715 34.2508 31.8719 34.2069 31.9873 34.2069C32.1019 34.2069 32.2017 34.249 32.282 34.3325C32.3627 34.4162 32.4025 34.5206 32.4025 34.638C32.4025 34.7548 32.3627 34.8588 32.2809 34.9408C32.2003 35.0222 32.1005 35.0618 31.9873 35.0618C31.8726 35.0618 31.7725 35.0194 31.6908 34.9373C31.6094 34.8556 31.5655 34.7548 31.5655 34.638ZM31.6676 35.5298H32.3072V39.4827H31.6676V35.5298ZM30.3901 37.2545C30.5355 37.3575 30.6619 37.4841 30.7547 37.6405C30.868 37.8319 30.9178 38.0423 30.9178 38.2652C30.9178 38.6132 30.8115 38.9221 30.5542 39.1562C30.2858 39.4003 29.9398 39.4827 29.588 39.4827H27.2109V35.5507H29.4723C29.775 35.5507 30.1088 35.6041 30.3489 35.8082C30.5771 36.0028 30.6589 36.2794 30.6589 36.5758C30.6589 36.7296 30.6308 36.8793 30.5628 37.0176C30.5185 37.1081 30.4607 37.1877 30.3901 37.2545ZM24.5862 39.5803C24.0345 39.5803 23.5493 39.4003 23.1601 38.9974C22.7691 38.5931 22.5976 38.0904 22.5976 37.5248C22.5976 36.9578 22.7694 36.4541 23.1628 36.0495C23.5524 35.6487 24.0351 35.4672 24.5862 35.4672C25.1396 35.4672 25.6244 35.649 26.0161 36.0516C26.4095 36.4559 26.5837 36.9574 26.5837 37.5248C26.5837 38.0915 26.4105 38.5937 26.0175 38.9977C25.6262 39.3999 25.1389 39.5803 24.5862 39.5803ZM19.7721 37.3091L21.7585 35.5436H22.6232L21.0236 36.9826L22.787 39.4827H22.0179L20.5599 37.4236L19.7721 38.0992V39.4827H19.1396V35.5436H19.7721V37.3091Z" fill="#3F3F3F"/>
  </g>
</svg>