<svg width="150" height="38" viewBox="0 0 150 38" fill="none" xmlns="http://www.w3.org/2000/svg">
<g clip-path="url(#clip0_761_15393)">
<path d="M9.60379 38.0182H0.672852L5.13801 30.4158L9.60379 38.0182Z" fill="#A0C324"/>
<path d="M23.0012 0L18.5348 7.60547L14.069 15.2073L9.60322 22.811L5.13867 30.4158L9.60322 38.0177L14.069 30.4158L16.301 26.6149V26.6137L18.5335 22.811H18.5348L23.0012 15.2073L27.4651 22.811L31.9309 30.4158L36.3954 38.0177L40.8612 30.4158L36.3954 22.811L31.9309 15.2073L27.4651 7.60547L23.0012 0Z" fill="#2E92A0"/>
<path d="M18.5351 22.8113L16.3031 26.6128L16.3013 26.614V26.6128L18.5332 22.8113H18.5351Z" fill="#2E92A0"/>
<path d="M45.3265 38.0182H36.3955L40.8607 30.4158L45.3265 38.0182Z" fill="#A0C324"/>
<path d="M29.698 26.6127H16.3013L18.5332 22.8112H18.5351L23.0009 15.2069L27.466 22.8112L29.698 26.6127Z" fill="#A0C324"/>
<path d="M29.698 26.6127L23.0009 38.0185L16.3013 26.6145V26.6127H29.698Z" fill="#2E92A0"/>
</g>
<g clip-path="url(#clip1_761_15393)">
<path d="M50.8659 7.25708H53.3002L57.1795 16.2789H54.4717L53.8207 14.6663H50.2931L49.6421 16.2789H47L50.8659 7.25708ZM53.0791 12.7341L52.064 10.2003L51.0355 12.7341H53.0791Z" fill="#2E92A0"/>
<path d="M57.6885 14.6794L60.93 11.2752H57.8057V9.35608H64.2099V10.9425L60.9425 14.3468H64.2099V16.2789H57.6885V14.6794Z" fill="#2E92A0"/>
<path d="M72.0205 12.7733V12.7986C72.0205 14.8207 70.5498 16.4325 68.4663 16.4325C66.0453 16.4325 64.9263 14.6671 64.9263 12.6319C64.9263 12.4782 64.9263 12.2992 64.9387 12.1333H69.651C69.4557 11.3781 68.9094 10.9939 68.1279 10.9939C67.516 10.9939 67.0737 11.2113 66.5658 11.7107L65.199 10.5975C65.8765 9.74013 66.8393 9.19006 68.2452 9.19006C70.4583 9.19006 72.0205 10.6359 72.0205 12.7733ZM67.23 13.3871C67.3215 14.1554 67.7896 14.6409 68.4663 14.6409C69.1306 14.6409 69.5471 14.1554 69.6901 13.3871H67.23Z" fill="#2E92A0"/>
<path d="M73.0757 9.35602H75.5491V10.7512C75.9523 9.817 76.5908 9.1901 77.7747 9.24078V11.8007H77.5668C76.2649 11.8007 75.5491 12.5167 75.5491 14.117V16.2797H73.0757V9.35602Z" fill="#2E92A0"/>
<path d="M81.1208 15.4346V16.2797H78.6475V6.9375H81.1208V10.2771C81.6022 9.70174 82.2008 9.20234 83.255 9.20234C84.9219 9.20234 86.3793 10.5714 86.3793 12.7856V12.8109C86.3793 15.0635 84.9344 16.4325 83.2683 16.4325C82.2008 16.4325 81.5889 15.9593 81.1208 15.4346ZM83.9583 12.824V12.7986C83.9583 11.8767 83.2941 11.2244 82.5134 11.2244C81.7061 11.2244 81.0685 11.8767 81.0685 12.7986V12.824C81.0685 13.7451 81.7061 14.3982 82.5134 14.3982C83.2941 14.3982 83.9583 13.7582 83.9583 12.824Z" fill="#2E92A0"/>
<path d="M87.1084 14.2953V14.2699C87.1084 12.824 88.215 12.0942 89.8678 12.0942C90.532 12.0942 91.1564 12.2094 91.5605 12.3639V12.2478C91.5605 11.5187 91.1049 11.1084 90.1546 11.1084C89.4122 11.1084 88.8393 11.249 88.2017 11.4926L87.6937 9.7909C88.4885 9.4705 89.334 9.25391 90.5445 9.25391C91.8074 9.25391 92.667 9.54733 93.2266 10.0974C93.7603 10.6107 93.9815 11.3259 93.9815 12.2985V16.2789H91.5472V15.5491C91.0392 16.0738 90.4015 16.4326 89.4645 16.4326C88.1235 16.4326 87.1084 15.6643 87.1084 14.2953ZM91.5862 13.7705V13.4501C91.326 13.348 90.9743 13.2719 90.6102 13.2719C89.8811 13.2719 89.477 13.6038 89.477 14.1293V14.1547C89.477 14.6287 89.842 14.9091 90.3491 14.9091C91.0783 14.9091 91.5862 14.4743 91.5862 13.7705Z" fill="#2E92A0"/>
<path d="M99.723 9.35608H102.261L99.6839 16.113C99.0587 17.751 98.4211 18.3656 97.0027 18.3656C96.1173 18.3656 95.4139 18.1351 94.7505 17.7641L95.5054 16.0615C95.9086 16.3051 96.3127 16.4326 96.5862 16.4326C96.8331 16.4326 97.0027 16.3688 97.1715 16.1514L94.4121 9.35608H96.9894L98.3953 13.5278L99.723 9.35608Z" fill="#2E92A0"/>
<path d="M102.405 12.8493V12.824C102.405 10.8656 103.942 9.2146 106.167 9.2146C107.626 9.2146 108.563 9.82923 109.174 10.7504L107.508 11.9788C107.157 11.5309 106.779 11.2498 106.193 11.2498C105.386 11.2498 104.8 11.9404 104.8 12.7978V12.824C104.8 13.7067 105.373 14.3973 106.206 14.3973C106.818 14.3973 107.182 14.1293 107.56 13.6814L109.213 14.8583C108.549 15.8187 107.638 16.4456 106.089 16.4456C103.954 16.4456 102.405 14.8068 102.405 12.8493Z" fill="#2E92A0"/>
<path d="M109.747 14.2953V14.2699C109.747 12.824 110.854 12.0942 112.506 12.0942C113.171 12.0942 113.795 12.2094 114.199 12.3639V12.2478C114.199 11.5187 113.744 11.1084 112.793 11.1084C112.051 11.1084 111.478 11.249 110.84 11.4926L110.332 9.7909C111.127 9.4705 111.973 9.25391 113.183 9.25391C114.446 9.25391 115.306 9.54733 115.865 10.0974C116.399 10.6107 116.62 11.3259 116.62 12.2985V16.2789H114.186V15.5491C113.678 16.0738 113.04 16.4326 112.103 16.4326C110.762 16.4326 109.747 15.6643 109.747 14.2953ZM114.225 13.7705V13.4501C113.965 13.348 113.613 13.2719 113.249 13.2719C112.52 13.2719 112.116 13.6038 112.116 14.1293V14.1547C112.116 14.6287 112.481 14.9091 112.988 14.9091C113.717 14.9091 114.225 14.4743 114.225 13.7705Z" fill="#2E92A0"/>
<path d="M117.883 9.35605H120.357V10.3287C120.812 9.75246 121.463 9.20239 122.465 9.20239C123.976 9.20239 124.86 10.162 124.86 11.7492V16.2797H122.4V12.5298C122.4 11.7623 122.009 11.3528 121.398 11.3528C120.787 11.3528 120.357 11.7623 120.357 12.5298V16.2797H117.883V9.35605Z" fill="#2E92A0"/>
<path d="M49.6983 23.8777H46.978V21.7019H54.9577V23.8777H52.2241V30.6599H49.6983V23.8777Z" fill="#2E92A0"/>
<path d="M55.8696 21.3186H58.4336V23.1102H55.8696V21.3186ZM55.9212 23.7371H58.3812V30.6608H55.9212V23.7371Z" fill="#2E92A0"/>
<path d="M59.501 27.2304V27.2051C59.501 25.2467 61.0374 23.5957 63.263 23.5957C64.7212 23.5957 65.6582 24.2103 66.2701 25.1315L64.604 26.3599C64.2523 25.912 63.8749 25.6309 63.2888 25.6309C62.4815 25.6309 61.8962 26.3215 61.8962 27.1789V27.2051C61.8962 28.0878 62.469 28.7785 63.3021 28.7785C63.914 28.7785 64.2781 28.5104 64.6556 28.0625L66.3092 29.2394C65.6449 30.1998 64.7337 30.8267 63.1848 30.8267C61.0498 30.8267 59.501 29.1879 59.501 27.2304Z" fill="#2E92A0"/>
<path d="M66.8428 28.677V28.6517C66.8428 27.205 67.9502 26.476 69.6021 26.476C70.2664 26.476 70.8916 26.5912 71.2957 26.7449V26.6296C71.2957 25.8997 70.8392 25.4902 69.8898 25.4902C69.1465 25.4902 68.5737 25.6308 67.936 25.8744L67.4281 24.1727C68.2229 23.8523 69.0684 23.6349 70.2797 23.6349C71.5418 23.6349 72.4014 23.9291 72.9609 24.4792C73.4955 24.9917 73.7158 25.7077 73.7158 26.6803V30.6607H71.2815V29.9308C70.7736 30.4556 70.1359 30.8144 69.1998 30.8144C67.8579 30.8144 66.8428 30.0461 66.8428 28.677ZM71.3214 28.1523V27.8319C71.0604 27.7298 70.7095 27.6529 70.3446 27.6529C69.6154 27.6529 69.2114 27.9856 69.2114 28.5103V28.5365C69.2114 29.0097 69.5764 29.2909 70.0835 29.2909C70.8135 29.2909 71.3214 28.856 71.3214 28.1523Z" fill="#2E92A0"/>
<path d="M74.9795 23.7371H77.4529V25.1323C77.8561 24.1981 78.4946 23.5712 79.6785 23.6219V26.1818H79.4706C78.1687 26.1818 77.4529 26.8978 77.4529 28.4981V30.6608H74.9795V23.7371Z" fill="#2E92A0"/>
<path d="M87.2807 27.1544V27.1797C87.2807 29.2018 85.81 30.8136 83.7266 30.8136C81.3056 30.8136 80.1865 29.0482 80.1865 27.013C80.1865 26.8593 80.1865 26.6803 80.199 26.5144H84.9113C84.7159 25.7592 84.1697 25.375 83.3882 25.375C82.7763 25.375 82.334 25.5924 81.826 26.0918L80.4592 24.9786C81.1368 24.1212 82.0995 23.5712 83.5054 23.5712C85.7186 23.5712 87.2807 25.017 87.2807 27.1544ZM82.4903 27.7682C82.5817 28.5365 83.0498 29.022 83.7266 29.022C84.3908 29.022 84.8074 28.5365 84.9504 27.7682H82.4903Z" fill="#2E92A0"/>
<path d="M88.7134 28.5103V25.6824H87.8804V23.7371H88.7134V21.9839H91.1735V23.7371H92.8138V25.6824H91.1735V28.0371C91.1735 28.5357 91.3946 28.7278 91.8502 28.7278C92.1761 28.7278 92.4887 28.6387 92.788 28.4973V30.3919C92.3324 30.6346 91.7596 30.8013 91.0696 30.8013C89.5722 30.8013 88.7134 30.1614 88.7134 28.5103Z" fill="#2E92A0"/>
<path d="M97.6309 21.7021H104.92V23.8779H100.156V25.4006H104.465V27.4611H100.156V30.6602H97.6309V21.7021Z" fill="#2E92A0"/>
<path d="M105.468 27.2304V27.205C105.468 25.2213 107.108 23.5834 109.36 23.5834C111.612 23.5834 113.239 25.2082 113.239 27.1789V27.205C113.239 29.1879 111.586 30.8266 109.334 30.8266C107.095 30.8266 105.468 29.214 105.468 27.2304ZM110.844 27.2304V27.205C110.844 26.3476 110.219 25.6308 109.334 25.6308C108.435 25.6308 107.863 26.3215 107.863 27.1789V27.205C107.863 28.0493 108.488 28.7661 109.36 28.7661C110.258 28.7661 110.844 28.0624 110.844 27.2304Z" fill="#2E92A0"/>
<path d="M114.281 23.7371H116.754V25.1323C117.157 24.1981 117.796 23.5712 118.98 23.6219V26.1818H118.772C117.47 26.1818 116.754 26.8978 116.754 28.4981V30.6608H114.281V23.7371Z" fill="#2E92A0"/>
<path d="M119.8 28.2545V23.7371H122.274V27.487C122.274 28.2545 122.664 28.6509 123.276 28.6509C123.887 28.6509 124.317 28.2545 124.317 27.487V23.7371H126.777V30.6607H124.317V29.7004C123.875 30.2766 123.211 30.8144 122.209 30.8144C120.698 30.8144 119.8 29.8418 119.8 28.2545Z" fill="#2E92A0"/>
<path d="M128.106 23.737H130.579V24.6843C131.035 24.1081 131.686 23.5834 132.675 23.5834C133.612 23.5834 134.328 23.9929 134.705 24.7097C135.317 24.0059 136.021 23.5834 137.062 23.5834C138.572 23.5834 139.47 24.4923 139.47 26.1171V30.6607H136.997V26.8977C136.997 26.1302 136.619 25.7338 136.033 25.7338C135.448 25.7338 135.018 26.1302 135.018 26.8977V30.6607H132.558V26.8977C132.558 26.1302 132.167 25.7338 131.582 25.7338C130.996 25.7338 130.579 26.1302 130.579 26.8977V30.6607H128.106V23.737Z" fill="#2E92A0"/>
<path d="M140.694 28.2545V23.7371H143.168V27.487C143.168 28.2545 143.558 28.6509 144.17 28.6509C144.781 28.6509 145.211 28.2545 145.211 27.487V23.7371H147.671V30.6607H145.211V29.7004C144.769 30.2766 144.105 30.8144 143.103 30.8144C141.592 30.8144 140.694 29.8418 140.694 28.2545Z" fill="#2E92A0"/>
</g>
<defs>
<clipPath id="clip0_761_15393">
<rect width="46" height="38" fill="white"/>
</clipPath>
<clipPath id="clip1_761_15393">
<rect width="104" height="30" fill="white" transform="translate(46 4)"/>
</clipPath>
</defs>
</svg>
