<?xml version="1.0" encoding="UTF-8"?>
<svg id="Layer_1" xmlns="http://www.w3.org/2000/svg" version="1.1" viewBox="0 0 1080 1080">
  <!-- Generator: Adobe Illustrator 29.5.0, SVG Export Plug-In . SVG Version: 2.1.0 Build 137)  -->
  <defs>
    <style>
      .st0 {
        fill-rule: evenodd;
      }

      .st0, .st1 {
        fill: #231f20;
      }
    </style>
  </defs>
  <path class="st1" d="M759.49,797.51l-9.32-22.81-8.92,22.81c2.38.09,5.47.13,9.27.13s6.67-.04,8.96-.13M787.08,820.93l-.39.44c-6.45-.18-10.33-.27-11.66-.27-5.33,0-10.3.09-14.89.27l-.39-.44v-2.74l.43-.49,3.79-.21c1.59-.09,2.39-.65,2.39-1.69,0-.61-.4-1.98-1.22-4.1l-3.52-9.18c-4.01-.06-8.1-.09-12.29-.09-2.26,0-5.62.03-10.09.09l-1.92,5.3c-1.46,4.04-2.19,6.57-2.19,7.58,0,1.1.68,1.75,2.05,1.96.76.12,2.23.24,4.44.34l.43.44v2.78l-.43.44c-5.36-.18-8.83-.27-10.36-.27-1.19,0-4.14.09-8.84.27l-.43-.4v-2.82l.48-.44c2.98-.17,4.83-.76,5.5-1.79.69-1.01,3.25-7.05,7.7-18.14l11.35-28.42c.85-2.21,2.13-5.53,3.83-9.97h6.18l23.07,54.28c.89,2.07,1.71,3.22,2.44,3.48.95.36,2.33.53,4.13.53l.39.48v2.78ZM718.52,761.73c-4.57,6.24-9.6,13.88-15.05,22.94-3.09,5.11-4.79,8.37-5.1,9.79-.18.76-.27,1.84-.27,3.27v4.31c0,8.5.27,13.22.79,14.19.24.4.57.67.99.79.73.19,2.51.39,5.37.56l.43.43v2.91l-.43.44c-2.88-.18-7.36-.27-13.42-.27s-10.67.09-13.4.27l-.39-.4v-2.96l.43-.43c2.84-.18,4.62-.37,5.35-.56.45-.12.77-.39,1.01-.79.52-.97.77-5.69.77-14.19v-5.14c0-1.1-2.27-5.51-6.84-13.24-4.64-7.86-8.34-13.19-11.1-16.02-1.34-1.35-2.23-2.14-2.69-2.32-.47-.19-1.56-.28-3.27-.28l-.47-.49v-2.44l.43-.48c7.09-1.39,11.62-2.38,13.63-2.96,1.51.73,2.85,1.67,4.04,2.83,2.46,2.4,5.78,7.79,9.93,16.11l5.7,11.41c1.71-2.77,4.98-8.31,9.79-16.63l4.84-8.66c.52-.97,1.23-2.29,2.12-3.97h6.36l.43.43v1.53ZM648.8,746.14c0,1.77-.62,3.27-1.86,4.5-1.23,1.23-2.74,1.86-4.5,1.86s-3.22-.62-4.46-1.86c-1.23-1.23-1.86-2.74-1.86-4.5s.62-3.28,1.87-4.54c1.25-1.26,2.73-1.9,4.44-1.9s3.19.62,4.46,1.85c1.26,1.24,1.9,2.76,1.9,4.59M656.28,820.93l-.4.44c-2.9-.18-7.39-.27-13.45-.27s-10.51.09-13.4.27l-.4-.44v-2.91l.44-.43c2.96-.18,4.65-.33,5.08-.44.84-.23,1.34-.76,1.48-1.6.37-2.1.57-6.58.57-13.49v-23.03c0-6.91-.2-11.41-.57-13.49-.15-.85-.64-1.38-1.48-1.62-.43-.1-2.13-.25-5.08-.43l-.44-.43v-2.96l.44-.4c2.78.18,7.25.27,13.41.27s10.58-.09,13.36-.27l.45.4v2.96l-.45.43c-2.96.18-4.65.33-5.08.43-.85.24-1.34.77-1.49,1.62-.37,2.08-.56,6.58-.56,13.49v23.03c0,6.91.19,11.4.56,13.49.15.85.64,1.38,1.49,1.6.43.12,2.12.27,5.08.44l.45.43v2.91ZM612.13,799.13l-.43.48c-1.8.43-2.85,1.04-3.13,1.8-.3.77-.45,3.72-.45,8.83,0,2.46.12,4.9.36,7.31-9.69,3.66-18.48,5.49-26.37,5.49-10.4,0-18.81-2.91-25.23-8.73-6.43-5.82-9.64-13.76-9.64-23.8,0-13.08,5.68-22.4,17.01-27.98,5.2-2.56,11.8-3.84,19.81-3.84,4.65,0,9.35.51,14.12,1.52,3.91.85,7,1.8,9.27,2.88l.39.77c-.76,2.55-1.38,7-1.87,13.33l-.48.43h-2.62l-.43-.43c0-.55-.06-1.69-.18-3.42-.12-1.72-.27-2.94-.43-3.64-1.28-1.74-3.46-3.21-6.54-4.42-3.3-1.28-6.88-1.92-10.72-1.92-10.26,0-17.35,4.14-21.27,12.44-1.8,3.83-2.7,8.28-2.7,13.33,0,8.07,2.16,14.76,6.45,20.08,4.47,5.51,10.28,8.26,17.46,8.26,3.79,0,7.47-.82,11.01-2.44.2-2.03.3-4.81.3-8.35,0-2.88-.1-4.62-.3-5.23-.18-.46-.73-.8-1.67-1-.77-.18-3.22-.4-7.35-.65l-.48-.44v-2.73l.48-.43c4.22.1,8.62.15,13.24.12,2.67-.03,6.66-.07,11.98-.12l.43.43v2.09ZM515.92,791.19c0-8.41-1.68-15.09-5.07-20.05-3.39-4.95-8.33-7.41-14.86-7.41-8.63,0-14.34,3.87-17.16,11.62-1.44,3.97-2.17,8.43-2.17,13.36,0,8.98,1.65,16.05,4.96,21.25,3.42,5.37,8.54,8.05,15.36,8.05,8.28,0,13.83-4.07,16.67-12.23,1.52-4.32,2.26-9.18,2.26-14.59M529.34,788.94c0,10.71-3.12,19.11-9.36,25.2-6.06,5.93-14.35,8.89-24.86,8.89-9.92,0-17.71-2.8-23.37-8.38-5.66-5.59-8.5-13.36-8.5-23.31,0-13.96,5.33-23.63,15.99-28.99,4.84-2.43,10.8-3.66,17.89-3.66,10.12,0,18.01,2.65,23.64,7.97,5.71,5.39,8.57,12.82,8.57,22.29M447.14,806.56c-.64,4.25-.95,9.03-.95,14.37l-.45.44-31.63-.27c-5.29,0-9.02.09-11.19.27l-.45-.44v-1.22l.22-.52c2.14-1.37,3.31-2.21,3.48-2.57.27-.52.43-2.45.49-5.78l.12-9.77v-22.06c0-6.91-.18-11.41-.56-13.49-.15-.85-.64-1.38-1.47-1.62-.45-.1-2.14-.25-5.1-.43l-.43-.43v-2.96l.43-.4c2.99.18,7.37.27,13.15.27s10.52-.09,13.62-.27l.43.4v3l-.43.39c-2.97.18-4.66.33-5.09.43-.85.24-1.34.77-1.49,1.62-.37,2.08-.56,6.58-.56,13.49v26.03c0,3.81.07,7.49.22,11.06h5.92c8.48,0,13.67-.33,15.58-1,.33-.12.55-.28.7-.49.28-.4.56-1.26.83-2.6l1.04-5.41.43-.48h2.66l.48.43ZM370.22,791.19c0-8.41-1.68-15.09-5.07-20.05-3.39-4.95-8.33-7.41-14.86-7.41-8.63,0-14.34,3.87-17.16,11.62-1.44,3.97-2.17,8.43-2.17,13.36,0,8.98,1.65,16.05,4.96,21.25,3.42,5.37,8.54,8.05,15.37,8.05,8.27,0,13.83-4.07,16.67-12.23,1.51-4.32,2.26-9.18,2.26-14.59M383.63,788.94c0,10.71-3.12,19.11-9.36,25.2-6.06,5.93-14.35,8.89-24.86,8.89-9.92,0-17.71-2.8-23.37-8.38-5.66-5.59-8.5-13.36-8.5-23.31,0-13.96,5.33-23.63,15.99-28.99,4.85-2.43,10.8-3.66,17.89-3.66,10.12,0,18.01,2.65,23.64,7.97,5.71,5.39,8.57,12.82,8.57,22.29M301.88,763.04l-.49.43c-2.96.18-4.65.33-5.08.43-.85.24-1.34.77-1.48,1.62-.37,2.08-.57,6.58-.57,13.49v17.67c0,13.03.19,21.53.57,25.47l-.57.4c-3.28-.55-5.77-.95-7.44-1.17-7.77-8.74-21.06-24.68-39.84-47.8v28.47c0,6.91.2,11.4.56,13.49.15.85.64,1.38,1.49,1.6.43.12,2.14.27,5.1.44l.43.43v2.96l-.43.4c-3.34-.18-6.45-.27-9.31-.27-3.34,0-6.69.09-10.06.27l-.43-.4v-2.96l.43-.43c2.96-.18,4.67-.33,5.1-.44.85-.23,1.34-.76,1.47-1.6.39-2.1.58-6.58.58-13.49v-23.03c0-6.91-.2-11.41-.58-13.49-.13-.85-.62-1.38-1.47-1.62-.43-.1-2.14-.25-5.1-.43l-.43-.43v-2.96l.43-.4c2.76.18,5.38.27,7.88.27,3.92,0,7.18-.09,9.76-.27,10.44,13.94,22.72,28.87,36.82,44.8v-25.47c0-6.91-.19-11.41-.56-13.49-.15-.85-.64-1.38-1.47-1.62-.45-.1-2.14-.25-5.1-.43l-.45-.43v-2.96l.45-.4c3.24.18,6.33.27,9.27.27,3.75,0,7.1-.09,10.09-.27l.44.4v2.96ZM220.18,820.8l-.45.44-8.87-.13c-1.46-.03-4,.02-7.62.13-.87-1.09-2.29-3.45-4.26-7.1l-9.06-16.76-3.43,4.92c-4.35,6.24-8.38,12.56-12.1,18.94-1.34-.09-2.67-.13-4.01-.13-2.7,0-4.67.04-5.91.13l-.45-.44v-2.78l.45-.48c2.38-.18,3.8-.43,4.31-.74.86-.55,2.84-2.91,5.91-7.1l5.7-7.69c.23-.3,2.56-3.43,6.97-9.41l-3.31-5.84-5.32-9.18c-3.76-6.49-6.64-10.34-8.62-11.53-.65-.4-1.35-.61-2.08-.61-.58,0-1.49.04-2.71.13l-.56-.44-.34-2.3.39-.65c4.08-.83,9.36-2.01,15.79-3.48,1.84,1.19,3.73,3.33,5.66,6.44.94,1.52,2.39,4.1,4.35,7.75l4.92,9.14,5.66-8.27c4.68-6.84,7.71-11.5,9.11-13.97,1.19.12,2.36.18,3.52.18,1.95,0,3.92-.06,5.91-.18l.45.43v2.88l-.45.43c-1.99.03-3.33.25-3.98.65-.65.4-1.92,1.78-3.8,4.13-1.89,2.35-4.37,5.62-7.44,9.79-1.71,2.33-3.8,5.21-6.27,8.66,1.46,2.67,3.52,6.43,6.23,11.28l5.57,9.59c3.08,5.27,5.01,8.26,5.81,8.94.8.68,2.09,1.03,3.89,1.03l.45.43v2.78ZM150.3,806.56c-.64,4.25-.95,9.03-.95,14.37l-.45.44-31.63-.27c-5.29,0-9.02.09-11.19.27l-.45-.44v-1.22l.22-.52c2.14-1.37,3.31-2.21,3.48-2.57.27-.55.43-2.48.49-5.78l.12-9.77v-22.06c0-6.91-.18-11.41-.56-13.49-.15-.85-.64-1.38-1.47-1.62-.45-.1-2.14-.25-5.1-.43l-.43-.43v-2.96l.43-.4c2.93.18,7.46.27,13.58.27,5.45,0,15.82-.09,31.13-.27l.48.36-.57,4.83c-.18,1.53-.31,2.84-.4,3.91l-.3,4.06-.43.48h-2.53l-.44-.43c-.03-3.95-.25-6.2-.7-6.74-.31-.42-1.87-.73-4.66-.97-2.81-.22-5.26-.34-7.39-.34-2.53,0-5.08.1-7.67.3-.31,3.04-.48,7.28-.48,12.67v9c2.29.15,4.15.22,5.57.22l5.71-.05c2.67-.03,4.17-.24,4.53-.65.46-.52.76-2.48.91-5.87l.43-.45h2.7l.43.45c-.1,3.24-.16,6.22-.16,8.92,0,2.94.06,6.14.16,9.63l-.43.39h-2.91l-.44-.43c0-3.34-.22-5.32-.69-5.94-.47-.62-1.87-1.04-4.23-1.25-1.77-.13-3.66-.21-5.65-.21-2.12,0-4.1.08-5.93.21v13.28c0,3.81.07,7.49.22,11.06h5.92c8.48,0,13.67-.33,15.58-1,.33-.12.55-.28.7-.49.28-.4.56-1.26.83-2.6l1.04-5.41.43-.48h2.66l.48.43ZM89.09,759.95c-.36,2.14-.53,4.37-.56,6.66l-.09,7.27-.43.45h-2.75l-.48-.4c-.15-3.72-.31-5.88-.47-6.52-.36-1.16-1.28-1.84-2.8-2.05-.58-.09-3.31-.13-8.19-.13h-5.83c-.06,1.03-.09,5.05-.09,12.11v24.72c0,6.91.2,11.4.56,13.49.15.85.64,1.38,1.49,1.6.43.12,2.12.27,5.08.44l.44.43v2.91l-.44.44c-2.87-.18-7.34-.27-13.4-.27s-10.68.09-13.4.27l-.4-.4v-2.96l.45-.43c2.96-.18,4.65-.33,5.08-.44.85-.23,1.34-.76,1.49-1.6.37-2.1.56-6.58.56-13.49v-24.72c0-7.18-.04-11.21-.13-12.11h-6.23c-5.19,0-8.22.16-9.09.49-.46.16-.79.39-.95.64-.27.48-.49,1.4-.65,2.8-.21,1.53-.34,3.12-.4,4.74l-.43.45h-2.75l-.48-.45-.09-7.44c-.03-2.08-.19-4.25-.52-6.48l.4-.44c1.71.3,7.95.44,18.71.44h17.63c9.93,0,16.17-.15,18.73-.44l.43.44ZM885.94,710.34c-.64,4.25-.95,9.03-.95,14.37l-.45.44-31.64-.27c-5.29,0-9.02.09-11.19.27l-.44-.44v-1.22l.22-.52c2.14-1.37,3.31-2.21,3.48-2.57.27-.52.43-2.45.49-5.78l.12-9.76v-22.06c0-6.91-.18-11.41-.56-13.49-.15-.85-.64-1.38-1.47-1.62-.45-.11-2.14-.25-5.1-.43l-.43-.43v-2.96l.43-.4c2.99.18,7.37.27,13.15.27s10.52-.09,13.63-.27l.43.4v3l-.43.39c-2.97.18-4.67.33-5.1.43-.85.24-1.34.77-1.49,1.62-.37,2.08-.57,6.58-.57,13.49v26.03c0,3.8.08,7.49.23,11.05h5.91c8.48,0,13.67-.33,15.58-1,.33-.12.55-.28.7-.49.28-.4.56-1.26.83-2.6l1.04-5.41.43-.48h2.66l.48.43ZM824.23,649.92c0,1.77-.62,3.27-1.85,4.5-1.24,1.23-2.74,1.85-4.5,1.85s-3.22-.62-4.46-1.85c-1.23-1.23-1.86-2.74-1.86-4.5s.63-3.29,1.88-4.55c1.24-1.26,2.73-1.9,4.44-1.9s3.19.62,4.46,1.86c1.26,1.23,1.9,2.76,1.9,4.59M831.71,724.71l-.4.44c-2.9-.18-7.39-.27-13.45-.27s-10.51.09-13.4.27l-.4-.44v-2.92l.44-.43c2.96-.18,4.65-.33,5.08-.45.85-.22,1.34-.76,1.49-1.6.37-2.1.56-6.58.56-13.49v-23.03c0-6.91-.19-11.41-.56-13.49-.15-.85-.64-1.38-1.49-1.62-.43-.11-2.12-.25-5.08-.43l-.44-.43v-2.96l.44-.4c2.78.18,7.25.27,13.4.27s10.58-.09,13.36-.27l.45.4v2.96l-.45.43c-2.96.18-4.65.33-5.08.43-.85.24-1.34.77-1.49,1.62-.37,2.08-.57,6.58-.57,13.49v23.03c0,6.91.2,11.39.57,13.49.15.85.64,1.38,1.49,1.6.43.12,2.12.27,5.08.45l.45.43v2.92ZM787.17,704.76c0,4.8-1.37,9.02-4.1,12.68-2.38,3.22-5.5,5.62-9.36,7.18-3.53,1.46-7.75,2.18-12.66,2.18-6.09,0-12.08-1.4-17.94-4.17l-.52-.97c.8-3.33,1.22-8.09,1.22-14.24l.43-.43h2.78l.4.43v1.01c0,1.62.18,3.76.52,6.43,1.04,1.86,2.91,3.46,5.61,4.79,2.81,1.4,5.75,2.09,8.8,2.09,5.73,0,9.72-2,11.92-6,1.14-2.06,1.71-4.19,1.71-6.41,0-3.72-1.56-6.37-4.66-7.96-1.53-.79-4.01-1.44-7.45-1.96-7.74-1.19-12.84-2.68-15.27-4.49-3.68-2.72-5.53-6.94-5.53-12.66s2.01-10.7,6-14.23c4.24-3.72,10.13-5.57,17.68-5.57,6.79,0,12.28,1.08,16.45,3.27l.3,1.04c-.69,3.45-1.12,7.6-1.25,12.45l-.49.43h-2.73l-.45-.43c-.07-3.49-.22-5.75-.43-6.79-.89-1.37-2.47-2.53-4.7-3.49-2.38-.98-4.86-1.47-7.44-1.47-3.89,0-6.97,1.03-9.23,3.09-2.13,1.95-3.18,4.46-3.18,7.53,0,3.33,1.21,5.78,3.61,7.36,1.56,1.01,5.26,1.98,11.1,2.91.61.09,2.3.37,5.1.87,1.71.28,3.28.7,4.74,1.25,2.93,1.11,5.14,2.79,6.61,5.05,1.61,2.47,2.41,5.54,2.41,9.23M725.88,724.71l-.45.44c-2.87-.18-7.34-.27-13.4-.27s-10.68.09-13.4.27l-.44-.4v-2.96l.47-.43c2.97-.18,4.67-.33,5.1-.45.85-.22,1.34-.76,1.48-1.6.37-2.1.56-6.58.56-13.49v-10.49c-1.48-.15-6.18-.22-14.1-.22-7.31,0-12.14.07-14.46.22v10.49c0,6.91.19,11.39.56,13.49.15.85.64,1.38,1.49,1.6.43.12,2.12.27,5.09.45l.43.43v2.92l-.39.44c-2.91-.18-7.39-.27-13.42-.27s-10.71.09-13.4.27l-.43-.4v-2.96l.43-.43c2.96-.18,4.65-.33,5.1-.45.83-.22,1.32-.76,1.47-1.6.39-2.1.56-6.58.56-13.49v-23.03c0-6.91-.18-11.41-.56-13.49-.15-.85-.64-1.38-1.47-1.62-.45-.11-2.14-.25-5.1-.43l-.43-.43v-2.96l.43-.4c2.78.18,7.25.27,13.4.27s10.77-.09,13.42-.27l.39.4v3l-.43.39c-2.97.18-4.66.33-5.09.43-.85.24-1.34.77-1.49,1.62-.37,2.08-.56,6.58-.56,13.49v7.18c3.08.15,7.31.22,12.72.22,8.47,0,13.74-.07,15.83-.22v-7.18c0-6.91-.19-11.41-.56-13.49-.15-.85-.64-1.38-1.48-1.62-.43-.11-2.13-.25-5.1-.43l-.47-.43v-2.96l.44-.4c2.81.18,7.28.27,13.4.27s10.8-.09,13.4-.27l.45.4v3l-.4.39c-3.02.18-4.73.33-5.13.43-.85.24-1.34.77-1.49,1.62-.39,2.08-.56,6.58-.56,13.49v23.03c0,6.91.18,11.39.56,13.49.15.85.64,1.38,1.49,1.6.43.12,2.12.27,5.08.45l.45.43v2.92ZM636.86,696.41h-36.7l-.43.43c0,3.19.18,6.03.57,8.53,1.65,10.95,7.55,16.42,17.67,16.42,8.27,0,13.83-4.07,16.67-12.23,1.34-3.8,2.08-8.19,2.23-13.15M650.31,692.71c0,10.71-3.12,19.11-9.36,25.2-6.06,5.93-14.35,8.89-24.86,8.89s-18.19-2.76-22.9-8.28c-4.58-5.36-6.88-11.99-6.88-19.89,0-2.44.09-4.42.27-5.91l.43-.43,49.85.07c0-4.2-.24-7.35-.7-9.44-2.29-10.28-8.69-15.41-19.2-15.41-5.36,0-9.7,1.34-13.01,4.04-3.2,2.59-5.74,6.69-7.62,12.32l-.65.52-2.44-1.34,1.83-13.33c1.67-1.4,3.37-2.54,5.14-3.43,5.05-2.55,11.01-3.83,17.89-3.83,10.13,0,18.01,2.65,23.64,7.96,5.72,5.39,8.57,12.82,8.57,22.29M571.74,663.72c-.36,2.14-.53,4.37-.56,6.66l-.09,7.26-.43.44h-2.75l-.48-.4c-.15-3.71-.31-5.88-.47-6.52-.36-1.16-1.28-1.84-2.8-2.05-.58-.09-3.31-.13-8.19-.13h-5.82c-.06,1.03-.09,5.05-.09,12.11v24.73c0,6.91.19,11.39.56,13.49.15.85.64,1.38,1.49,1.6.43.12,2.13.27,5.08.45l.44.43v2.92l-.44.44c-2.87-.18-7.34-.27-13.4-.27s-10.68.09-13.4.27l-.4-.4v-2.96l.45-.43c2.96-.18,4.65-.33,5.08-.45.85-.22,1.34-.76,1.49-1.6.37-2.1.56-6.58.56-13.49v-24.73c0-7.18-.04-11.2-.13-12.11h-6.23c-5.19,0-8.22.16-9.09.49-.46.16-.79.39-.95.64-.27.48-.49,1.4-.65,2.8-.21,1.53-.34,3.12-.4,4.74l-.43.44h-2.75l-.48-.44-.09-7.45c-.03-2.08-.19-4.25-.52-6.48l.4-.44c1.71.3,7.95.44,18.71.44h17.64c9.92,0,16.17-.15,18.72-.44l.43.44ZM469.63,649.92c0,1.77-.62,3.27-1.85,4.5-1.23,1.23-2.74,1.85-4.5,1.85s-3.23-.62-4.46-1.85c-1.23-1.23-1.86-2.74-1.86-4.5s.63-3.29,1.87-4.55c1.25-1.26,2.74-1.9,4.44-1.9s3.19.62,4.45,1.86c1.26,1.23,1.9,2.76,1.9,4.59M477.11,724.71l-.4.44c-2.9-.18-7.39-.27-13.45-.27s-10.51.09-13.4.27l-.4-.44v-2.92l.44-.43c2.96-.18,4.65-.33,5.08-.45.85-.22,1.34-.76,1.48-1.6.37-2.1.57-6.58.57-13.49v-23.03c0-6.91-.2-11.41-.57-13.49-.15-.85-.64-1.38-1.48-1.62-.43-.11-2.13-.25-5.08-.43l-.44-.43v-2.96l.44-.4c2.78.18,7.25.27,13.41.27s10.58-.09,13.36-.27l.45.4v2.96l-.45.43c-2.96.18-4.65.33-5.08.43-.85.24-1.34.77-1.49,1.62-.37,2.08-.56,6.58-.56,13.49v23.03c0,6.91.19,11.39.56,13.49.15.85.64,1.38,1.49,1.6.43.12,2.12.27,5.08.45l.45.43v2.92ZM433.91,710.34c-.64,4.25-.95,9.03-.95,14.37l-.45.44-31.63-.27c-5.29,0-9.02.09-11.19.27l-.44-.44v-1.22l.22-.52c2.14-1.37,3.31-2.21,3.48-2.57.27-.52.43-2.45.49-5.78l.12-9.76v-22.06c0-6.91-.18-11.41-.56-13.49-.15-.85-.64-1.38-1.47-1.62-.44-.11-2.14-.25-5.1-.43l-.43-.43v-2.96l.43-.4c2.99.18,7.37.27,13.15.27s10.52-.09,13.63-.27l.43.4v3l-.43.39c-2.97.18-4.67.33-5.1.43-.85.24-1.34.77-1.49,1.62-.37,2.08-.57,6.58-.57,13.49v26.03c0,3.8.07,7.49.23,11.05h5.91c8.48,0,13.67-.33,15.58-1,.33-.12.55-.28.7-.49.28-.4.57-1.26.83-2.6l1.04-5.41.43-.48h2.66l.48.43ZM371.18,710.34c-.64,4.25-.95,9.03-.95,14.37l-.45.44-31.63-.27c-5.29,0-9.02.09-11.19.27l-.44-.44v-1.22l.22-.52c2.14-1.37,3.31-2.21,3.48-2.57.27-.52.43-2.45.49-5.78l.12-9.76v-22.06c0-6.91-.18-11.41-.57-13.49-.15-.85-.64-1.38-1.47-1.62-.45-.11-2.14-.25-5.1-.43l-.43-.43v-2.96l.43-.4c2.99.18,7.37.27,13.15.27s10.52-.09,13.62-.27l.43.4v3l-.43.39c-2.97.18-4.67.33-5.1.43-.85.24-1.33.77-1.49,1.62-.37,2.08-.56,6.58-.56,13.49v26.03c0,3.8.07,7.49.22,11.05h5.91c8.48,0,13.67-.33,15.59-1,.33-.12.55-.28.7-.49.28-.4.56-1.26.83-2.6l1.04-5.41.43-.48h2.66l.48.43ZM309.47,649.92c0,1.77-.62,3.27-1.85,4.5-1.23,1.23-2.74,1.85-4.5,1.85s-3.22-.62-4.46-1.85c-1.23-1.23-1.86-2.74-1.86-4.5s.63-3.29,1.87-4.55c1.25-1.26,2.73-1.9,4.44-1.9s3.19.62,4.46,1.86c1.26,1.23,1.9,2.76,1.9,4.59M316.95,724.71l-.4.44c-2.9-.18-7.39-.27-13.45-.27s-10.51.09-13.4.27l-.4-.44v-2.92l.44-.43c2.96-.18,4.65-.33,5.08-.45.85-.22,1.34-.76,1.48-1.6.37-2.1.57-6.58.57-13.49v-23.03c0-6.91-.19-11.41-.57-13.49-.15-.85-.64-1.38-1.48-1.62-.43-.11-2.13-.25-5.08-.43l-.44-.43v-2.96l.44-.4c2.78.18,7.25.27,13.41.27s10.58-.09,13.35-.27l.45.4v2.96l-.45.43c-2.96.18-4.65.33-5.08.43-.85.24-1.34.77-1.49,1.62-.37,2.08-.56,6.58-.56,13.49v23.03c0,6.91.19,11.39.56,13.49.15.85.64,1.38,1.49,1.6.43.12,2.12.27,5.08.45l.45.43v2.92ZM273.93,724.71l-.43.44c-2.88-.18-7.34-.27-13.42-.27s-10.67.09-13.4.27l-.39-.4v-2.96l.43-.43c2.96-.18,4.65-.33,5.09-.45.83-.22,1.34-.76,1.47-1.6.39-2.1.58-6.58.58-13.49v-29.44l-9.72,19.9c-.55,1.1-2.44,5.17-5.66,12.2l-7.96,17.4h-2.91c-1.51-3.6-3.55-8.13-6.13-13.63l-6.09-12.93-11.41-23.72v30.21c0,6.91.19,11.39.56,13.49.15.85.64,1.38,1.49,1.6.43.12,2.13.27,5.1.45l.43.43v2.96l-.43.4c-3.34-.18-6.45-.27-9.32-.27-3.34,0-6.7.09-10.06.27l-.43-.4v-2.96l.43-.43c2.96-.18,4.65-.33,5.09-.45.83-.22,1.32-.76,1.47-1.6.39-2.1.56-6.58.56-13.49v-23.03c0-6.91-.18-11.41-.56-13.49-.15-.85-.64-1.38-1.47-1.62-.44-.11-2.14-.25-5.09-.43l-.43-.43v-2.96l.43-.4c3.02.18,6.83.27,11.44.27,3.55,0,6.64-.09,9.27-.27.97,2.21,2.33,5.31,4.1,9.31l2.78,6,13.85,28.96,6.66-13.51,10.4-22.24c1.22-2.63,2.41-5.48,3.58-8.53,3.27.18,5.48.27,6.61.27,5.69,0,10.04-.09,13.06-.27l.43.4v3l-.43.39c-2.96.18-4.67.33-5.1.43-.84.24-1.34.77-1.48,1.62-.37,2.08-.57,6.58-.57,13.49v23.03c0,6.91.19,11.39.57,13.49.15.85.64,1.38,1.48,1.6.43.12,2.14.27,5.1.45l.43.43v2.92Z"/>
  <path class="st1" d="M1042.23,820.93l-.4.45c-2.9-.18-7.39-.27-13.45-.27s-10.5.09-13.4.27l-.4-.45v-2.91l.45-.43c2.96-.18,4.65-.33,5.08-.44.85-.23,1.34-.76,1.49-1.61.37-2.1.56-6.58.56-13.49v-23.03c0-6.91-.19-11.41-.56-13.49-.15-.85-.64-1.38-1.49-1.62-.43-.1-2.12-.26-5.08-.43l-.45-.43v-2.96l.45-.4c2.78.18,7.25.27,13.4.27s10.58-.09,13.36-.27l.45.4v2.96l-.45.43c-2.96.18-4.65.33-5.08.43-.85.24-1.34.77-1.49,1.62-.37,2.08-.57,6.58-.57,13.49v23.03c0,6.91.19,11.39.57,13.49.15.85.64,1.38,1.49,1.61.43.11,2.12.27,5.08.44l.45.43v2.91ZM1001.09,820.93l-.43.45c-.21,0-.76-.02-1.65-.04-3.98-.15-6.46-.22-7.44-.22-1.48,0-3.83.09-7.06.27-.12-.7-.67-1.86-1.65-3.49l-10.8-18.02-4.83-7.35c-.61-.89-1.47-1.78-2.57-2.66l.47-1.47c.67.03,1.16.04,1.49.04,2.84,0,5.08-.46,6.7-1.35,1.49-.82,2.86-2.23,4.1-4.26,1.23-2.04,1.85-4.46,1.85-7.27,0-4.9-1.83-8.22-5.48-9.92-1.74-.82-4.28-1.22-7.61-1.22-1.46,0-2.85.1-4.19.34-.28,2.84-.43,7.69-.43,14.54v22.76c0,6.91.2,11.39.56,13.49.15.85.64,1.38,1.49,1.61.43.11,2.12.27,5.09.44l.43.43v2.91l-.39.45c-2.91-.18-7.38-.27-13.42-.27s-10.71.09-13.4.27l-.43-.4v-2.96l.43-.43c2.96-.18,4.65-.33,5.1-.44.83-.23,1.32-.76,1.47-1.61.39-2.1.56-6.58.56-13.49v-23.03c0-6.91-.18-11.41-.56-13.49-.15-.85-.64-1.38-1.47-1.62-.44-.1-2.14-.26-5.1-.43l-.43-.43v-2.96l.43-.4c2.84.18,7.31.27,13.4.27,3.54,0,6.42-.04,8.62-.13,4.38-.18,7.67-.27,9.84-.27,5.02,0,8.71.46,11.05,1.35,3.16,1.22,5.29,3.29,6.36,6.18.52,1.42.79,3.11.79,5.05,0,7.89-4.44,13.49-13.32,16.81,1.44,2.44,2.99,4.9,4.61,7.4l6.7,10.31c3.95,6.09,6.58,9.57,7.87,10.41.67.43,1.6.64,2.79.64l.43.45v2.78ZM900.27,797.51l-9.32-22.81-8.91,22.81c2.38.09,5.47.13,9.27.13s6.67-.04,8.96-.13M927.86,820.93l-.38.45c-6.45-.18-10.33-.27-11.66-.27-5.34,0-10.3.09-14.89.27l-.39-.45v-2.73l.43-.49,3.79-.21c1.59-.09,2.39-.65,2.39-1.69,0-.61-.4-1.98-1.22-4.1l-3.52-9.18c-4.01-.06-8.1-.09-12.29-.09-2.26,0-5.62.03-10.09.09l-1.92,5.3c-1.46,4.04-2.18,6.57-2.18,7.58,0,1.1.68,1.75,2.05,1.96.76.12,2.23.24,4.44.34l.43.45v2.78l-.43.45c-5.36-.18-8.82-.27-10.35-.27-1.19,0-4.15.09-8.84.27l-.43-.4v-2.82l.47-.45c2.99-.17,4.83-.76,5.5-1.78.69-1.01,3.25-7.05,7.7-18.14l11.35-28.42c.85-2.21,2.13-5.53,3.83-9.97h6.18l23.07,54.28c.89,2.06,1.71,3.22,2.44,3.48.95.36,2.33.53,4.13.53l.38.48v2.78ZM848.64,806.56c-.64,4.25-.95,9.03-.95,14.37l-.45.45-31.63-.27c-5.29,0-9.02.09-11.19.27l-.45-.45v-1.22l.22-.52c2.14-1.37,3.31-2.21,3.48-2.57.27-.52.43-2.45.49-5.78l.12-9.77v-22.06c0-6.91-.18-11.41-.56-13.49-.14-.85-.64-1.38-1.47-1.62-.45-.1-2.14-.26-5.1-.43l-.43-.43v-2.96l.43-.4c2.99.18,7.37.27,13.15.27s10.52-.09,13.63-.27l.43.4v3l-.43.39c-2.97.18-4.67.33-5.1.43-.85.24-1.34.77-1.49,1.62-.37,2.08-.57,6.58-.57,13.49v26.03c0,3.8.07,7.49.22,11.06h5.91c8.48,0,13.67-.33,15.59-1,.33-.12.55-.28.7-.49.28-.4.57-1.26.83-2.6l1.04-5.41.43-.48h2.66l.48.43Z"/>
  <path class="st1" d="M776.41,842.38c0,1.77-.62,3.27-1.86,4.5-1.23,1.24-2.74,1.86-4.5,1.86s-3.22-.62-4.46-1.86c-1.23-1.23-1.86-2.73-1.86-4.5s.63-3.29,1.87-4.55c1.24-1.26,2.73-1.9,4.44-1.9s3.19.62,4.46,1.85c1.26,1.23,1.9,2.76,1.9,4.59M783.89,917.16l-.4.44c-2.9-.18-7.39-.27-13.45-.27s-10.5.09-13.4.27l-.4-.44v-2.91l.45-.43c2.96-.18,4.65-.33,5.08-.45.85-.22,1.34-.76,1.48-1.6.37-2.1.56-6.58.56-13.49v-23.03c0-6.91-.19-11.41-.56-13.49-.14-.85-.64-1.39-1.48-1.62-.43-.11-2.13-.25-5.08-.43l-.45-.43v-2.96l.45-.4c2.78.18,7.25.27,13.4.27s10.58-.09,13.36-.27l.45.4v2.96l-.45.43c-2.96.18-4.65.33-5.08.43-.85.23-1.34.77-1.49,1.62-.37,2.08-.57,6.58-.57,13.49v23.03c0,6.91.19,11.4.57,13.49.15.85.64,1.38,1.49,1.6.43.12,2.12.27,5.08.45l.45.43v2.91ZM740.31,902.23c-.61,5.29-1.07,10.28-1.4,14.98l-.43.4c-11.93-.24-20.98-.36-27.16-.36-4.53,0-12.55.12-24.07.36l-.45-.4v-3.05c2.16-2.7,5.44-7.18,9.85-13.45l6.34-9.07,8.14-11.96c2.7-3.95,6.73-10.06,12.1-18.34l-10.92.04c-8.44.03-13.3.24-14.58.61-.76.21-1.28.79-1.57,1.75-.12.37-.36,1.72-.74,4.04l-.34,2.17-.48.45h-2.66l-.43-.52c.19-3.08.3-5.85.3-8.32,0-.79-.03-2.53-.09-5.22l.44-.44c3.94.18,12.73.27,26.37.27,3.22,0,10.24-.09,21.02-.27l.43.44v2.6l-3.57,5c-3.74,5.17-6.97,9.72-9.66,13.67l-12.88,18.9c-1.46,2.11-4.84,7.31-10.15,15.57,1.55.06,3.88.09,7.01.09,14.71,0,22.54-.4,23.51-1.22.52-.43,1.19-2.66,1.99-6.7.18-.85.34-1.53.49-2.1l.47-.43h2.62l.48.47ZM667.01,888.87h-36.7l-.43.43c0,3.2.18,6.03.56,8.53,1.65,10.95,7.55,16.42,17.67,16.42,8.27,0,13.83-4.07,16.67-12.23,1.34-3.8,2.08-8.18,2.23-13.15M680.45,885.17c0,10.71-3.12,19.11-9.36,25.2-6.06,5.93-14.36,8.89-24.86,8.89s-18.19-2.76-22.89-8.27c-4.58-5.37-6.88-11.99-6.88-19.9,0-2.44.09-4.41.27-5.91l.43-.43,49.85.07c0-4.2-.24-7.35-.7-9.43-2.29-10.29-8.69-15.41-19.2-15.41-5.36,0-9.7,1.34-13.02,4.04-3.19,2.59-5.73,6.69-7.62,12.32l-.65.52-2.44-1.34,1.83-13.33c1.67-1.4,3.37-2.54,5.14-3.43,5.05-2.55,11.01-3.83,17.89-3.83,10.13,0,18.01,2.65,23.64,7.97,5.72,5.39,8.57,12.82,8.57,22.29M602.45,917.16l-.43.44c-4.75-.18-8.05-.27-9.88-.27-1.63,0-4.19.09-7.71.27-.67-1.46-2.16-3.51-4.47-6.15l-12.94-14.75c-2.81-3.2-5.84-6.12-9.1-8.78v10.35c0,6.91.19,11.4.57,13.49.15.85.64,1.38,1.49,1.6.43.12,2.12.27,5.1.45l.43.43v2.91l-.39.44c-2.91-.18-7.39-.27-13.42-.27s-10.71.09-13.4.27l-.43-.4v-2.96l.43-.43c2.96-.18,4.65-.33,5.1-.45.83-.22,1.32-.76,1.47-1.6.39-2.1.56-6.58.56-13.49v-23.03c0-6.91-.18-11.41-.56-13.49-.15-.85-.64-1.39-1.47-1.62-.45-.11-2.14-.25-5.1-.43l-.43-.43v-2.96l.43-.4c2.78.18,7.25.27,13.4.27s10.77-.09,13.42-.27l.39.4v3l-.43.38c-2.97.18-4.66.33-5.1.43-.85.23-1.34.77-1.49,1.62-.37,2.08-.57,6.58-.57,13.49v10.8c5.42-5.05,9.32-8.8,11.67-11.24l6.18-6.4c2.12-2.2,4.83-5.23,8.14-9.05v-3l.48-.44c2.24.18,4.43.27,6.58.27,2.53,0,5.48-.09,8.87-.27l.45.44v2.69l-.45.43c-3.36,0-5.85.55-7.49,1.62-2.35,1.56-6.81,5.46-13.36,11.67l-8.8,8.35c1.25,1.69,3.29,4.18,6.09,7.45l9.76,11.32c7.22,8.4,11.39,12.84,12.52,13.37.7.31,1.84.49,3.45.52l.43.48v2.91ZM525.1,917.16l-.43.44c-.21,0-.76-.02-1.65-.04-3.98-.15-6.46-.23-7.44-.23-1.49,0-3.83.09-7.06.27-.12-.7-.67-1.86-1.65-3.49l-10.8-18.02-4.83-7.36c-.61-.89-1.47-1.78-2.57-2.66l.47-1.47c.67.03,1.16.04,1.49.04,2.84,0,5.08-.46,6.7-1.35,1.49-.82,2.86-2.23,4.1-4.26,1.23-2.03,1.86-4.46,1.86-7.27,0-4.9-1.83-8.22-5.48-9.92-1.74-.82-4.28-1.22-7.61-1.22-1.46,0-2.85.1-4.19.34-.28,2.84-.43,7.7-.43,14.55v22.76c0,6.91.19,11.4.56,13.49.15.85.64,1.38,1.49,1.6.43.12,2.12.27,5.09.45l.43.43v2.91l-.39.44c-2.91-.18-7.38-.27-13.42-.27s-10.71.09-13.4.27l-.43-.4v-2.96l.43-.43c2.96-.18,4.65-.33,5.1-.45.83-.22,1.32-.76,1.47-1.6.38-2.1.56-6.58.56-13.49v-23.03c0-6.91-.18-11.41-.56-13.49-.15-.85-.64-1.39-1.47-1.62-.45-.11-2.14-.25-5.1-.43l-.43-.43v-2.96l.43-.4c2.84.18,7.31.27,13.4.27,3.54,0,6.42-.05,8.62-.13,4.38-.18,7.66-.27,9.84-.27,5.02,0,8.7.46,11.05,1.35,3.16,1.22,5.29,3.29,6.36,6.18.52,1.43.79,3.11.79,5.05,0,7.89-4.45,13.49-13.32,16.81,1.44,2.44,2.99,4.9,4.61,7.4l6.7,10.31c3.95,6.09,6.58,9.57,7.87,10.41.67.43,1.6.64,2.79.64l.43.44v2.78ZM445.19,888.87h-36.7l-.43.43c0,3.2.18,6.03.56,8.53,1.65,10.95,7.55,16.42,17.67,16.42,8.28,0,13.83-4.07,16.67-12.23,1.34-3.8,2.08-8.18,2.23-13.15M458.63,885.17c0,10.71-3.12,19.11-9.36,25.2-6.06,5.93-14.35,8.89-24.86,8.89s-18.19-2.76-22.9-8.27c-4.58-5.37-6.88-11.99-6.88-19.9,0-2.44.09-4.41.27-5.91l.43-.43,49.85.07c0-4.2-.24-7.35-.7-9.43-2.29-10.29-8.69-15.41-19.2-15.41-5.36,0-9.7,1.34-13.02,4.04-3.19,2.59-5.73,6.69-7.62,12.32l-.65.52-2.44-1.34,1.83-13.33c1.67-1.4,3.37-2.54,5.14-3.43,5.05-2.55,11.01-3.83,17.89-3.83,10.14,0,18.01,2.65,23.64,7.97,5.72,5.39,8.57,12.82,8.57,22.29M378.71,917.16l-.43.44c-2.88-.18-7.34-.27-13.42-.27s-10.67.09-13.4.27l-.39-.4v-2.96l.43-.43c2.96-.18,4.65-.33,5.09-.45.83-.22,1.34-.76,1.47-1.6.39-2.1.58-6.58.58-13.49v-29.43l-9.72,19.89c-.55,1.1-2.44,5.17-5.66,12.2l-7.96,17.4h-2.91c-1.52-3.6-3.55-8.13-6.14-13.62l-6.09-12.93-11.41-23.72v30.21c0,6.91.19,11.4.56,13.49.15.85.64,1.38,1.49,1.6.43.12,2.13.27,5.1.45l.43.43v2.96l-.43.4c-3.34-.18-6.45-.27-9.32-.27-3.34,0-6.7.09-10.06.27l-.43-.4v-2.96l.43-.43c2.96-.18,4.65-.33,5.09-.45.83-.22,1.32-.76,1.47-1.6.39-2.1.56-6.58.56-13.49v-23.03c0-6.91-.18-11.41-.56-13.49-.15-.85-.64-1.39-1.47-1.62-.44-.11-2.14-.25-5.09-.43l-.43-.43v-2.96l.43-.4c3.02.18,6.83.27,11.44.27,3.55,0,6.64-.09,9.27-.27.97,2.21,2.33,5.32,4.1,9.32l2.78,6,13.85,28.96,6.66-13.51,10.4-22.24c1.22-2.63,2.41-5.48,3.58-8.53,3.27.18,5.48.27,6.61.27,5.69,0,10.04-.09,13.06-.27l.43.4v3l-.43.38c-2.96.18-4.66.33-5.1.43-.84.23-1.34.77-1.48,1.62-.37,2.08-.57,6.58-.57,13.49v23.03c0,6.91.19,11.4.57,13.49.15.85.64,1.38,1.48,1.6.43.12,2.14.27,5.1.45l.43.43v2.91Z"/>
  <path class="st1" d="M31.49,615.52c-2.18,0-3.96-1.77-3.96-3.96s1.77-3.96,3.96-3.96h1017.02c2.19,0,3.96,1.77,3.96,3.96s-1.77,3.96-3.96,3.96H31.49Z"/>
  <path class="st0" d="M272.98,573.41c-73.55-24.38-154.58-28.51-241.49-27.58l9.96-21.14c81.31,5.21,156.75,13.33,231.53,48.72,74.78-35.39,150.22-43.51,231.53-48.72l9.96,21.14c-86.92-.93-167.95,3.19-241.49,27.58M272.98,573.41c-73.55-40.63-154.58-59.96-241.49-62.55,27.52-67.94,35.91-134.06,34.07-203.01,14.13,65.07,12.59,119.64.97,183.12,86.62,15.38,154.72,41.64,206.45,82.44,73.55-40.63,154.58-59.96,241.49-62.55-27.53-67.94-35.91-134.06-34.07-203.01-14.13,65.07-12.58,119.64-.97,183.12-86.62,15.38-154.72,41.64-206.45,82.44"/>
  <path class="st0" d="M309,205.82c17.76,11.49,29.51,31.46,29.51,54.18,0,35.61-28.87,64.48-64.48,64.48s-64.48-28.87-64.48-64.48c0-22.72,11.75-42.69,29.51-54.17-11.37,9.82-18.57,24.34-18.57,40.55,0,29.57,23.97,53.54,53.54,53.54s53.54-23.97,53.54-53.54c0-16.21-7.2-30.73-18.57-40.55"/>
  <polygon class="st0" points="274.02 194.16 278.23 203.23 287.62 199.79 284.19 209.18 293.25 213.39 284.19 217.6 287.62 226.99 278.23 223.55 274.02 232.62 269.81 223.55 260.43 226.99 263.86 217.6 254.79 213.39 263.86 209.18 260.43 199.79 269.81 203.23 274.02 194.16"/>
  <path class="st0" d="M188.42,225.74c.77-1.86,2.89-2.74,4.75-1.97,1.86.77,2.74,2.89,1.97,4.75-.77,1.86-2.89,2.74-4.75,1.97-1.86-.77-2.74-2.9-1.97-4.75"/>
  <path class="st0" d="M188.43,295.86c-.77-1.86.11-3.98,1.97-4.75,1.85-.77,3.98.11,4.75,1.97.77,1.86-.11,3.98-1.97,4.75-1.85.77-3.98-.11-4.75-1.97"/>
  <path class="st0" d="M238,345.43c-1.85-.77-2.74-2.89-1.97-4.75.77-1.86,2.9-2.74,4.75-1.97,1.86.77,2.74,2.89,1.97,4.75-.77,1.86-2.9,2.73-4.75,1.97"/>
  <path class="st0" d="M308.13,345.43c-1.86.77-3.98-.11-4.75-1.97-.77-1.85.11-3.98,1.97-4.75,1.85-.77,3.98.11,4.75,1.97.77,1.85-.11,3.98-1.97,4.75"/>
  <path class="st0" d="M357.7,295.85c-.77,1.86-2.89,2.74-4.75,1.97-1.85-.77-2.73-2.9-1.96-4.75.77-1.85,2.89-2.74,4.75-1.97,1.85.77,2.74,2.9,1.97,4.75"/>
  <path class="st0" d="M357.69,225.73c.77,1.86-.11,3.98-1.97,4.75-1.85.77-3.98-.11-4.75-1.97-.77-1.86.11-3.98,1.97-4.75,1.85-.77,3.98.11,4.75,1.97"/>
  <path class="st1" d="M351.3,263.38c.35-10.79-1.54-21.84-5.94-32.47-5.93-14.33-16.06-26.34-28.58-34.81-12.52-8.46-27.43-13.39-42.95-13.55-5.19-.06-10.44.41-15.68,1.42-5.09.99-10.16,2.5-15.13,4.56-10.7,4.43-19.9,10.97-27.31,18.92-7.7,8.26-13.48,18.07-17.01,28.65h0s-.06.19-.06.19h0l-.25.77-.25.81-.08.26h0s-.44,1.5-.44,1.5h0s-.1.36-.1.36l-.38,1.42-.12.48h0l-.29,1.2-.17.76h0l-.22,1.02h0s-.19.93-.19.93h0l-.15.77h0l-.22,1.23h0l-.08.49h0l-.24,1.55-.04.24h0l-.19,1.47h0c-.79,6.58-.77,13.3.16,20,.89,6.49,2.63,12.98,5.25,19.33,4.43,10.7,10.97,19.9,18.93,27.31,8.27,7.7,18.08,13.48,28.67,17.01h0s.15.05.15.05h0s.81.26.81.26l.83.26h0s.15.05.15.05h0s.82.23.82.23l.84.24h0s.17.05.17.05h0s.79.22.79.22h0s.84.22.84.22l.23.06,1.52.37.35.08h0s.7.16.7.16h0s.73.15.73.15h0s.44.09.44.09h0s1.41.27,1.41.27h0s.52.1.52.1h0s1.21.2,1.21.2h0s.76.11.76.11h0s1.11.16,1.11.16h0s.79.1.79.1h0s1.04.12,1.04.12h0s.89.09.89.09h0s.88.08.88.08h0s1.06.08,1.06.08h0s.84.06.84.06l1.09.06h0s.79.03.79.03l1.07.03c5.38.14,10.82-.28,16.23-1.29,5.26-.98,10.51-2.53,15.67-4.66,5.22-2.16,10.08-4.83,14.55-7.9,4.59-3.16,8.77-6.78,12.52-10.76l.11-.12h0s1.15-1.25,1.15-1.25h0s.16-.19.16-.19l.53-.6h0l.5-.58.24-.28h0s.99-1.2.99-1.2h0l.22-.27h0s.92-1.16.92-1.16h0s.28-.37.28-.37h0s.82-1.09.82-1.09l.35-.47h0s.75-1.05.75-1.05h0s.35-.5.35-.5l.69-1.03.39-.59h0s.59-.92.59-.92l.46-.74.53-.87h0s.45-.75.45-.75h0l.49-.85h0s.47-.83.47-.83h0s.41-.75.41-.75h0l.52-.97h0s.37-.72.37-.72h0s.48-.95.48-.95h0c4.89-9.95,7.68-20.9,8.05-32.11M349.31,229.27c4.64,11.2,6.63,22.85,6.26,34.24-.39,11.84-3.32,23.39-8.48,33.87h0s-.49.99-.49.99v.03s-.39.75-.39.75v.02s-.53.97-.53.97l-.02.02-.43.79v.02s-.47.83-.47.83h-.02s-.5.88-.5.88v.03s-.49.8-.49.8v.02s-.54.88-.54.88h0s-.46.75-.46.75l-.02.02-.61.94h-.01s-.41.64-.41.64l-.02.03-.7,1.03v.02s-.39.54-.39.54v.02s-.76,1.05-.76,1.05l-.02.02-.38.52-.02.03-.83,1.1v.02s-.29.37-.29.37l-.02.03-.95,1.2v.02s-.25.3-.25.3v.02s-1.01,1.2-1.01,1.2l-.03.02-.26.3h0s-.53.62-.53.62v.02s-.54.6-.54.6h0s-.17.2-.17.2l-.02.02-1.17,1.28h0s-.13.15-.13.15v.02c-3.95,4.18-8.36,7.99-13.22,11.34-4.72,3.25-9.85,6.06-15.35,8.34-5.42,2.25-10.96,3.87-16.52,4.91-5.71,1.06-11.45,1.5-17.12,1.36h-.02l-1.1-.03h-.02l-.82-.04h-.03l-1.12-.06h-.02l-.87-.06h-.03l-1.06-.09h-.03s-.93-.09-.93-.09h-.03l-.92-.1h-.03l-1.05-.12h-.02s-.85-.12-.85-.12h-.03l-1.13-.16h-.01l-.76-.12h-.03s-1.25-.22-1.25-.22h-.03s-.57-.11-.57-.11h-.03l-1.41-.27h-.02s-.48-.1-.48-.1h-.02l-.73-.15h-.01s-.73-.17-.73-.17h0l-.35-.08h-.03s-1.57-.39-1.57-.39h-.04s-.25-.08-.25-.08l-.84-.22h-.02s-.83-.23-.83-.23h0l-.18-.05h-.01l-.85-.24h-.03s-.84-.26-.84-.26h0s-.18-.06-.18-.06h-.02l-.83-.26h-.03s-.83-.28-.83-.28h0s-.17-.06-.17-.06h0c-11.17-3.73-21.51-9.82-30.23-17.94-8.39-7.82-15.29-17.53-19.97-28.82-2.77-6.69-4.6-13.53-5.54-20.39-.98-7.08-1.01-14.16-.17-21.07v-.02s.2-1.43.2-1.43v-.02s.01-.09.01-.09v-.07s.01-.03.01-.03l.02-.17.24-1.55v-.02s.1-.54.1-.54v-.02l.22-1.23v-.03s.16-.8.16-.8h0s.2-1,.2-1v-.04l.22-1.02v-.02s.19-.78.19-.78v-.03s.31-1.24.31-1.24v-.02l.13-.51v-.04s.4-1.45.4-1.45v-.03s.11-.36.11-.36h0s.45-1.56.45-1.56v-.04s.09-.26.09-.26l.25-.8v-.03s.27-.8.27-.8h0s.06-.2.06-.2h0c3.73-11.17,9.82-21.51,17.94-30.22,7.81-8.39,17.52-15.28,28.82-19.96,5.24-2.17,10.59-3.76,15.95-4.81,5.49-1.06,11.03-1.55,16.52-1.49,16.4.18,32.13,5.36,45.32,14.28,13.2,8.92,23.87,21.6,30.14,36.73"/>
  <path class="st0" d="M237.99,176.16c1.86-.77,3.98.11,4.75,1.97.77,1.85-.11,3.98-1.97,4.75-1.86.77-3.98-.11-4.75-1.97-.77-1.85.11-3.98,1.97-4.75"/>
  <path class="st0" d="M308.12,176.16c1.85.77,2.73,2.89,1.97,4.75-.77,1.85-2.9,2.73-4.75,1.97-1.86-.77-2.74-2.89-1.97-4.75.77-1.86,2.9-2.74,4.75-1.97"/>
  <path class="st0" d="M282.52,518.75c.75-7.44,1.48-14.9,2.27-22.32,0,0,.36-3.52,1.4-8.17-.08.01-.11.03-.11.03-1.35.28-2.68.52-4.01.78-3.49,16.67-8.84,46.03-9.08,50.34.5-.23,1.01-.46,1.51-.69,0,0,.48-6.85,8.04-19.95M375.26,338.39c-21.29,19.03-41.46,41.06-56.57,66.47-15.2,25.56-25.58,54.38-32.51,83.39,30.06-22.61,45.03-61.57,61.42-85.33-4.9-1.76-9.49-1.94-14.68-1.57-.32-.47,7.98-6.92,18.35-6.18,10.27-16.11,32.3-41.37,39.7-49.21,0,0-9.67.22-13.27,1.82,6.26-6.26,12.51-8.58,20.18-9.04,17.1-16.46,44.44-30.24,66.05-37.39-33.4,6.74-85.32,13.04-115.4,37.56-.07,4.46-.86,9.39-3.5,13.47-.53-2.56-2.46-7.55-3.78-9.22-17.35,12.58-32.91,27.85-45.22,53,.9,5.07,1.65,10.67,4.34,19.16,0,0-7.13-3.83-8.68-11.24-9.59,31.01-14.75,48.56-9.63,84.96,7.32-30.4,18.01-60.34,33.88-86.14,15.79-25.68,36.89-47.14,59.33-64.52"/>
  <path class="st0" d="M263.43,518.75c-.75-7.44-1.48-14.9-2.26-22.32,0,0-.36-3.52-1.4-8.17.08.01.12.03.12.03,1.34.28,2.68.52,4.01.78,3.49,16.67,8.84,46.03,9.08,50.34-.5-.23-1-.46-1.5-.69,0,0-.48-6.85-8.04-19.95M170.68,338.39c21.29,19.03,41.46,41.06,56.57,66.47,15.2,25.56,25.58,54.38,32.51,83.39-30.06-22.61-45.02-61.57-61.42-85.33,4.9-1.76,9.49-1.94,14.68-1.57.32-.47-7.97-6.92-18.35-6.18-10.27-16.11-32.29-41.37-39.69-49.21,0,0,9.67.22,13.27,1.82-6.26-6.26-12.51-8.58-20.18-9.04-17.1-16.46-44.44-30.24-66.05-37.39,33.4,6.74,85.32,13.04,115.4,37.56.07,4.46.86,9.39,3.49,13.47.53-2.56,2.46-7.55,3.79-9.22,17.35,12.58,32.91,27.85,45.22,53-.9,5.07-1.65,10.67-4.34,19.16,0,0,7.14-3.83,8.69-11.24,9.59,31.01,14.75,48.56,9.63,84.96-7.32-30.4-18.01-60.34-33.88-86.14-15.8-25.68-36.89-47.14-59.33-64.52"/>
  <path class="st0" d="M179.49,226.86v-.04c.19-.48.37-.96.55-1.43l.31-.82c.19-.48.39-.97.58-1.45l.34-.81c.2-.48.4-.95.61-1.43l.36-.8c.22-.48.43-.95.65-1.43.13-.26.25-.53.38-.79.21-.44.42-.89.64-1.33.13-.27.27-.54.4-.8.21-.41.42-.83.64-1.24.16-.3.32-.6.48-.9.21-.39.41-.77.63-1.15.17-.3.34-.61.51-.91.23-.4.46-.79.69-1.19l.47-.79c.26-.43.52-.86.78-1.28l.41-.65c.3-.48.61-.96.92-1.43l.39-.59c.32-.48.64-.95.96-1.42l.43-.62c.33-.46.66-.93.99-1.39l.41-.56c.34-.47.69-.93,1.04-1.39l.44-.57c.36-.46.72-.92,1.09-1.38l.39-.48c.38-.47.77-.94,1.17-1.4l.35-.41c.37-.43.74-.85,1.12-1.28l.48-.53c.38-.42.76-.84,1.14-1.25l.37-.4c.44-.47.88-.92,1.33-1.38l.36-.37c.45-.46.91-.91,1.37-1.36l.38-.37c.47-.45.94-.9,1.42-1.34l.37-.34c.49-.45.98-.89,1.48-1.33l.34-.3c.51-.44,1.02-.88,1.54-1.32l.35-.29c.52-.43,1.05-.86,1.58-1.28l.32-.25c.55-.43,1.1-.86,1.66-1.28l.26-.19c.58-.43,1.16-.86,1.75-1.28l.06-.04h.01s.03-.02.03-.02c.6-.43,1.21-.85,1.82-1.27l.25-.17c.6-.41,1.21-.8,1.83-1.2l.27-.17c.62-.4,1.24-.78,1.87-1.17l.27-.16c.61-.37,1.24-.73,1.86-1.09l.34-.2c.63-.36,1.26-.71,1.89-1.05l.31-.17c.65-.35,1.3-.69,1.96-1.02l.28-.15c.67-.34,1.35-.67,2.04-1l.23-.11c.7-.33,1.41-.66,2.13-.98l.16-.07c.74-.33,1.49-.65,2.25-.96.75-.31,1.5-.61,2.25-.9l.2-.08c.71-.27,1.42-.54,2.14-.79l.32-.11c.7-.25,1.39-.49,2.09-.72l.36-.12c.69-.23,1.39-.45,2.09-.65l.35-.11c.7-.21,1.4-.41,2.1-.6l.36-.09c.71-.19,1.43-.38,2.14-.56l.2-.05c.71-.17,1.43-.34,2.14-.5l.2-.04c.7-.15,1.4-.3,2.11-.44l.43-.08c.67-.13,1.33-.25,2-.36l.47-.08c.65-.11,1.3-.21,1.96-.3l.59-.08c.63-.09,1.27-.17,1.9-.24l.58-.07c.64-.07,1.29-.14,1.93-.2l.51-.04c.61-.06,1.22-.1,1.84-.14l.56-.04c.57-.03,1.14-.07,1.71-.09l.7-.03c.57-.02,1.14-.04,1.72-.05h.69c.58-.02,1.16-.02,1.73-.02.27,0,.53,0,.8,0,.55,0,1.1.02,1.64.03l.9.03c.52.02,1.05.04,1.58.07.3.02.61.04.91.05.41.02.81.05,1.21.08.43.03.86.07,1.3.11l1.03.1c.49.05.98.1,1.47.16l.91.11c.51.06,1.01.13,1.51.2.32.04.64.09.96.14.46.07.91.14,1.37.21.34.06.69.11,1.03.17.39.07.77.14,1.16.21l.66.13c.6.12,1.2.24,1.8.36l.62.14c.62.13,1.24.28,1.85.42l.48.12c.67.16,1.34.34,2.01.51l.4.11c.69.19,1.38.38,2.07.58l.33.1c.75.22,1.5.45,2.24.69l.15.05c2.03.66,4.03,1.38,6.01,2.16l.11.05c.76.3,1.51.61,2.25.93l.13.06c.76.33,1.51.66,2.26,1l.04.02c.78.36,1.55.72,2.32,1.1,5.48,2.68,10.71,5.86,15.63,9.51l.09.06.7.52c.37.28.75.57,1.11.86.27.21.54.43.81.64.35.28.71.57,1.06.85.31.25.61.5.92.76.3.25.6.51.9.77.32.28.65.56.97.84.28.25.55.49.83.74.32.29.65.59.97.89.27.25.54.5.81.76.34.32.68.65,1.01.97l.65.64c.36.36.73.72,1.08,1.09l.58.6c.38.39.75.79,1.12,1.19l.51.55c.39.42.77.86,1.15,1.29l.42.47c.41.47.82.95,1.22,1.43l.34.4c.42.5.83,1.01,1.24,1.53l.29.36c.41.52.82,1.05,1.22,1.58l.29.38c.41.55.81,1.1,1.21,1.65l.23.32c.41.57.81,1.15,1.2,1.73l.2.3c.41.6.8,1.21,1.2,1.82l.13.21c.4.63.8,1.27,1.19,1.92l.12.19c.39.65.78,1.3,1.16,1.97l.12.21c.38.67.76,1.35,1.13,2.03l.06.12c.38.7.75,1.41,1.11,2.13l.06.12c.37.72.73,1.45,1.07,2.18l.04.08c.36.75.7,1.5,1.04,2.26v.02c.35.78.69,1.56,1.01,2.35.32.77.63,1.55.93,2.32l.04.09c.28.74.55,1.47.82,2.21l.09.25c.26.72.5,1.45.74,2.17l.08.24c.24.72.46,1.44.68,2.16l.08.28c.21.7.41,1.39.6,2.09l.1.39c.19.69.36,1.38.54,2.07l.09.37c.17.68.33,1.37.48,2.06l.09.41c.15.68.29,1.35.42,2.03l.08.43c.13.67.25,1.34.36,2.01l.08.47c.11.66.21,1.33.31,1.99l.06.47c.09.63.17,1.26.25,1.9l.06.5c.07.62.14,1.24.2,1.86l.05.54c.05.6.1,1.19.14,1.79l.04.63c.04.59.07,1.18.09,1.77l.03.67c.02.58.04,1.16.05,1.74l.02.75c0,.56.01,1.12,0,1.68v.8c-.01.54-.02,1.08-.04,1.62l-.03.9c-.02.52-.04,1.04-.07,1.56l-.05.87c-.03.52-.07,1.05-.11,1.57-.02.31-.05.62-.08.93-.03.39-.07.79-.11,1.18-.04.44-.09.87-.14,1.31-.04.31-.07.63-.11.94-.06.51-.13,1.02-.2,1.53l-.11.79c-.08.56-.17,1.11-.26,1.67l-.11.67c-.1.6-.21,1.21-.33,1.81l-.1.55c-.12.65-.26,1.29-.39,1.93l-.1.45c-.16.7-.32,1.4-.49,2.1l-.06.24c-.19.76-.38,1.52-.59,2.27l-.03.1c-1.2,4.42-2.7,8.74-4.49,12.94h0c-.32.77-.66,1.53-1,2.28-3.76,8.28-8.66,16.05-14.58,23.06l-.4.47c-.4.46-.8.92-1.2,1.38l-.39.44c-.42.47-.85.93-1.28,1.39l-.37.4c-.43.46-.87.92-1.32,1.37l-.31.32c-.47.47-.94.94-1.41,1.4l-.27.26c-.5.48-1,.96-1.52,1.43l-.24.22c-.53.48-1.07.97-1.61,1.44l-.25.22c-.53.47-1.07.93-1.62,1.38l-.22.19c-.55.45-1.1.9-1.66,1.35l-.23.18c-.57.45-1.15.89-1.73,1.33l-.19.14c-.61.46-1.22.91-1.84,1.35l-.14.1c-.63.45-1.26.89-1.9,1.32l-.16.11c-.63.43-1.27.85-1.92,1.27l-.13.08c-.66.42-1.33.84-2.01,1.25l-.07.04c-.68.41-1.36.81-2.05,1.2l-.14.08c-.71.4-1.42.8-2.14,1.18h-.02c-.72.4-1.45.78-2.19,1.15l-.09.05c-.72.37-1.45.72-2.18,1.07l-.11.05c-.73.35-1.48.69-2.23,1.02l-.07.03c-.77.34-1.55.68-2.33,1-.77.32-1.55.63-2.33.93l-.13.05c-.75.29-1.5.57-2.26.84l-.13.05c-.76.27-1.53.53-2.29.78l-.09.03c-.77.25-1.54.49-2.31.72l-.17.05c-.72.22-1.45.42-2.17.62l-.29.08c-.7.19-1.4.37-2.11.55l-.28.07c-.73.17-1.46.35-2.18.5l-.35.08c-.65.14-1.31.28-1.97.41l-.55.11c-.61.12-1.22.23-1.83.33l-.6.1c-.58.09-1.17.19-1.75.27l-.82.12c-.53.07-1.06.14-1.58.21l-.89.1c-.51.06-1.02.11-1.53.16-.33.03-.66.06-.98.09-.44.03-.88.07-1.33.11-.4.03-.8.05-1.2.08-.38.02-.75.04-1.13.06-.47.02-.93.04-1.4.06l-.92.03c-.54.01-1.08.02-1.61.02h-.79c-.55,0-1.1,0-1.65,0l-.73-.02h0c-.69-.01-1.38-.04-2.06-.07h-.18c-.66-.04-1.33-.08-1.99-.12l-.4-.03c-.64-.04-1.29-.09-1.93-.15-8.53-.76-16.89-2.62-24.88-5.5l-.05-.02c-.61-.22-1.22-.45-1.83-.68l-.4-.15c-.61-.24-1.22-.48-1.83-.73l-.43-.18c-.6-.25-1.19-.5-1.79-.76l-.45-.2c-.58-.26-1.15-.52-1.72-.79l-.51-.24c-.57-.27-1.13-.54-1.69-.83l-.46-.23c-.58-.29-1.15-.59-1.73-.89l-.38-.2c-.59-.32-1.19-.64-1.77-.97l-.28-.16c-.58-.33-1.15-.65-1.72-.99l-.32-.19c-.56-.33-1.12-.68-1.68-1.02l-.29-.18c-.58-.37-1.15-.74-1.73-1.11l-.31-.2c-.56-.37-1.12-.75-1.68-1.14l-.34-.23c-.54-.38-1.08-.76-1.61-1.15l-.39-.28c-.52-.39-1.05-.78-1.57-1.18l-.37-.28c-.52-.41-1.05-.82-1.56-1.23l-.33-.26c-.52-.43-1.05-.86-1.57-1.3l-.28-.24c-.53-.45-1.06-.91-1.58-1.38l-.21-.19c-.52-.47-1.04-.94-1.56-1.43l-.1-.09c-.55-.51-1.08-1.03-1.62-1.56l-.15-.14c-.51-.51-1.02-1.02-1.52-1.54l-.22-.23c-.48-.5-.97-1.01-1.44-1.53l-.25-.28c-.47-.51-.93-1.03-1.39-1.55l-.25-.28c-.47-.53-.93-1.07-1.38-1.62l-.2-.24c-.45-.55-.91-1.1-1.35-1.66l-.22-.28c-.44-.56-.88-1.13-1.31-1.7l-.17-.22c-.45-.6-.89-1.21-1.33-1.82l-.05-.07c-.44-.62-.87-1.24-1.31-1.87l-.1-.15c-.43-.63-.85-1.28-1.26-1.92l-.11-.17c-.4-.63-.8-1.27-1.19-1.91l-.16-.25c-.37-.62-.74-1.25-1.1-1.88l-.19-.34c-.36-.63-.71-1.26-1.05-1.9l-.15-.29c-.35-.65-.69-1.31-1.03-1.98l-.15-.29c-.34-.67-.67-1.34-.99-2.01l-.13-.27c-.33-.7-.65-1.4-.97-2.11l-.06-.13c-.33-.75-.66-1.5-.97-2.27-.32-.77-.63-1.55-.92-2.32l-.04-.11c-.29-.76-.57-1.52-.84-2.28l-.05-.13c-.27-.75-.52-1.5-.77-2.25l-.07-.2c-.24-.74-.47-1.48-.69-2.22l-.06-.21c-.22-.74-.43-1.48-.64-2.22l-.06-.22c-.2-.75-.4-1.49-.58-2.24l-.04-.15c-.17-.71-.34-1.43-.5-2.15l-.07-.32c-.15-.68-.28-1.35-.42-2.03l-.09-.46c-.13-.66-.24-1.33-.36-1.99l-.08-.47c-.11-.65-.21-1.3-.3-1.95l-.08-.59c-.08-.61-.16-1.21-.24-1.82l-.08-.68c-.06-.55-.12-1.11-.17-1.66l-.08-.83c-.04-.51-.08-1.02-.12-1.53l-.06-.97c-.03-.48-.05-.96-.08-1.43-.02-.36-.03-.72-.04-1.07-.02-.44-.03-.88-.04-1.32,0-.4-.01-.8-.02-1.2,0-.39,0-.78,0-1.17,0-.45,0-.9.01-1.35l.02-.89c.01-.6.03-1.19.06-1.78l.03-.56c.03-.72.08-1.45.13-2.17l.02-.25c.16-2.24.4-4.47.71-6.69v-.03c.12-.83.25-1.66.39-2.48,1-6.03,2.56-11.94,4.63-17.66M316.96,177.21h0c.31.16.62.33.93.5.34.18.67.36,1,.55.32.17.63.35.94.53.35.2.7.4,1.05.61.31.19.63.37.94.56.31.19.63.38.94.58.32.2.64.4.96.6.32.2.64.41.96.62.33.21.66.43.99.65.29.2.59.4.88.6.33.23.66.45.98.68.29.21.59.42.88.63.36.26.71.52,1.07.78l.71.53c.35.26.69.53,1.03.79.27.21.54.42.81.64.3.24.59.48.89.72h0c11.65,9.53,21.19,22,27.36,36.89,10.82,26.13,9.04,54.32-2.54,77.85-.19.39-.38.77-.58,1.15l-.45.88c-.2.38-.4.76-.6,1.14-.17.31-.34.62-.51.93-.18.33-.36.65-.54.97-.2.34-.39.68-.59,1.02-.18.31-.37.62-.56.94-.21.35-.42.69-.63,1.03-.18.29-.36.58-.54.86-.24.37-.47.74-.71,1.1l-.48.73c-.27.41-.55.81-.83,1.22l-.44.63c-.29.41-.58.83-.88,1.23l-.45.61c-.32.44-.64.87-.97,1.3l-.33.43c-.37.47-.74.94-1.11,1.41l-.28.35c-.38.47-.77.94-1.17,1.4l-.31.36c-.41.48-.82.95-1.24,1.42l-.2.22c-.45.5-.91,1-1.38,1.5l-.15.16c-8.88,9.45-19.87,17.21-32.63,22.5-12.59,5.21-25.67,7.5-38.47,7.17-.43-.01-.86-.02-1.29-.04-.32-.01-.64-.02-.96-.04-.44-.02-.87-.05-1.31-.07-.34-.02-.68-.05-1.01-.07-.42-.03-.83-.06-1.25-.1-.37-.03-.73-.07-1.09-.1-.36-.03-.72-.07-1.08-.11-.41-.05-.82-.09-1.23-.14l-.99-.13c-.44-.06-.88-.12-1.33-.19l-.89-.14c-.49-.08-.98-.16-1.47-.25l-.67-.12c-.55-.1-1.1-.21-1.65-.31l-.56-.12c-.57-.12-1.14-.24-1.7-.37l-.41-.1c-.62-.14-1.23-.29-1.84-.44l-.29-.07c-.65-.17-1.31-.34-1.95-.52l-.21-.06c-.66-.19-1.32-.38-1.97-.58l-.21-.06c-.65-.2-1.3-.41-1.95-.62l-.2-.07c-25.05-8.36-46.47-27.12-57.38-53.44-6.44-15.54-8.41-31.81-6.52-47.4.07-.58.15-1.17.23-1.76v-.02s.05-.3.05-.3c.09-.61.18-1.21.28-1.82l.1-.64c.08-.48.17-.96.26-1.44l.18-.94c.08-.39.15-.77.24-1.16.08-.4.17-.8.26-1.19l.21-.92c.11-.49.23-.97.35-1.46l.15-.6c.15-.57.3-1.14.45-1.7l.12-.42c.17-.61.35-1.21.53-1.82l.09-.31c.19-.63.39-1.26.6-1.89l.07-.22c8.36-25.04,27.12-46.46,53.44-57.36,26.94-11.16,56.08-8.92,80.03,3.64"/>
  <path class="st0" d="M807.02,573.41c-73.55-24.38-154.58-28.51-241.49-27.58l9.96-21.15c81.31,5.21,156.75,13.33,231.53,48.72,74.78-35.4,150.22-43.51,231.53-48.72l9.96,21.15c-86.91-.94-167.94,3.19-241.49,27.58M706.23,337.96c21.3,19.03,41.48,41.07,56.59,66.49,15.21,25.57,25.59,54.39,32.52,83.42-30.07-22.62-45.04-61.59-61.44-85.35,4.9-1.76,9.49-1.94,14.68-1.58.32-.47-7.98-6.92-18.36-6.17-10.28-16.12-32.31-41.39-39.71-49.23,0,0,9.67.22,13.27,1.82-6.26-6.26-12.51-8.59-20.19-9.04-17.1-16.47-44.46-30.25-66.07-37.4,33.41,6.74,85.35,13.04,115.45,37.58.07,4.47.85,9.39,3.5,13.47.53-2.57,2.46-7.56,3.78-9.22,17.36,12.59,32.92,27.85,45.23,53.02-.9,5.08-1.66,10.67-4.34,19.17,0,0,7.14-3.83,8.69-11.24,9.6,31.02,14.75,48.57,9.63,84.99-7.32-30.41-18.01-60.36-33.89-86.17-15.8-25.69-36.9-47.16-59.35-64.55M818.11,518.39c.75-7.44,1.48-14.91,2.26-22.33,0,0,.37-3.52,1.4-8.18-.07.02-.11.03-.11.03-1.35.28-2.68.53-4.02.78-3.49,16.68-8.85,46.05-9.09,50.36-.5-.23-1-.46-1.51-.7,0,0-.48-6.85-8.04-19.96-.75-7.44-1.48-14.91-2.26-22.33,0,0-.36-3.52-1.4-8.18.08.02.12.03.12.03,1.35.28,2.68.53,4.01.78,3.49,16.68,8.85,46.05,9.09,50.36.5-.23,1.01-.46,1.51-.7,0,0,.48-6.85,8.05-19.96M910.88,337.96c-21.3,19.03-41.48,41.07-56.59,66.49-15.2,25.57-25.59,54.39-32.52,83.42,30.07-22.62,45.04-61.59,61.44-85.35-4.9-1.76-9.49-1.94-14.69-1.58-.32-.47,7.98-6.92,18.36-6.17,10.28-16.12,32.31-41.39,39.71-49.23,0,0-9.67.22-13.27,1.82,6.26-6.26,12.51-8.59,20.19-9.04,17.11-16.47,44.46-30.25,66.07-37.4-33.41,6.74-85.35,13.04-115.44,37.58-.07,4.47-.86,9.39-3.5,13.47-.53-2.57-2.46-7.56-3.78-9.22-17.36,12.59-32.92,27.85-45.23,53.02.9,5.08,1.65,10.67,4.34,19.17,0,0-7.14-3.83-8.69-11.24-9.59,31.02-14.75,48.57-9.63,84.99,7.32-30.41,18.02-60.36,33.89-86.17,15.8-25.69,36.9-47.16,59.35-64.55M807.58,161.87c-22.9,26.64-34.42,61.76-34.6,97.07,22.53,26.53,35.57,62.15,35.57,100.84-23.89-27.79-35.76-64.42-35.57-100.84-17.93-21.11-41.86-36.45-70.01-42.98-.14,1.8-.24,3.6-.3,5.41v2.54h-.06c-.78,62.18,45.01,121.81,105.93,135.87,0-38.68,13.04-74.3,35.57-100.83.39,36.2-11.13,72.4-34.6,99.7l-.97,1.13c63.52-14.66,110.58-78.85,105.58-143.82-28.15,6.53-52.08,21.88-70.01,42.99-.38-35.55-12.25-71.09-35.57-98.21l-.97,1.13ZM807.02,573.41c-73.55-40.63-154.58-59.96-241.49-62.55,27.53-67.94,35.91-134.06,34.07-203.01,14.13,65.06,12.58,119.64.97,183.12,86.62,15.38,154.72,41.64,206.45,82.45,73.55-40.63,154.58-59.96,241.49-62.55-27.52-67.94-35.91-134.06-34.07-203.01-14.13,65.06-12.59,119.64-.98,183.12-86.62,15.38-154.72,41.64-206.45,82.45"/>
</svg>