<svg xmlns="http://www.w3.org/2000/svg" width="111" height="40" viewBox="0 0 111 40" fill="none">
  <mask id="mask0_876_3265" style="mask-type:alpha" maskUnits="userSpaceOnUse" x="0" y="0" width="111" height="40">
    <rect x="0.5" width="110" height="40" fill="#D9D9D9"/>
  </mask>
  <g mask="url(#mask0_876_3265)">
    <path d="M23.7286 17.1737C23.7286 16.3828 23.7107 15.6136 23.7427 14.8464C23.7496 14.6792 23.9072 14.4924 24.0419 14.3598C26.0761 12.3577 28.1167 10.3617 30.162 8.37042C30.2943 8.24155 30.4776 8.16276 30.7037 8.01815C29.8547 7.20435 29.1309 6.51063 28.329 5.7421C28.5928 5.72442 28.7286 5.70748 28.8645 5.7073C30.8982 5.70572 32.9318 5.71674 34.9653 5.69767C35.3798 5.69378 35.4996 5.80802 35.4977 6.21853C35.4815 9.72093 35.4885 13.2234 35.4886 16.7259V17.1737H23.7286Z" fill="#3F3F3F"/>
    <path d="M33.1924 29.524C33.9776 28.7113 34.668 27.9969 35.4497 27.188V34.1859C35.2832 34.1984 35.1157 34.222 34.9482 34.2221C31.402 34.2241 27.8557 34.2177 24.3096 34.2311C23.878 34.2327 23.7124 34.1437 23.7154 33.6731C23.7371 30.1869 23.7269 26.7005 23.7268 23.2142V22.7287C24.5879 22.7287 25.4313 22.7148 26.2732 22.7427C26.41 22.7473 26.5519 22.9257 26.672 23.0429C28.6914 25.015 30.7087 26.9892 32.723 28.9663C32.8668 29.1073 32.9839 29.2744 33.1924 29.524Z" fill="#3F3F3F"/>
    <path d="M24.9399 19.8615C25.4837 19.3396 26.0096 18.8059 26.5731 18.3134C26.7256 18.1802 26.992 18.1162 27.2066 18.1152C30.0279 18.1024 32.8492 18.1097 35.6704 18.1049C36.5444 18.1034 36.4598 18.2334 36.4654 17.3048C36.4698 16.5827 36.4662 15.8606 36.4662 15.1939C38.0927 16.7888 39.729 18.3934 41.3411 19.9743C38.6696 22.5869 35.9191 25.2767 33.1961 27.9398C30.487 25.2891 27.7374 22.5987 24.9399 19.8615Z" fill="#3F3F3F"/>
    <path d="M8.62223 10.5013C7.89614 11.2279 7.204 11.9205 6.42238 12.7026C6.39694 12.4584 6.3731 12.3351 6.37291 12.2119C6.37054 10.2063 6.37404 8.20082 6.36771 6.1954C6.36686 5.90256 6.38038 5.69851 6.78146 5.69971C10.4382 5.71083 14.095 5.7062 17.7517 5.70796C17.8438 5.70805 17.9359 5.72851 18.061 5.74342V17.2075C17.2379 17.2075 16.4228 17.2237 15.6096 17.1931C15.4574 17.1873 15.2957 17.0108 15.1667 16.885C13.1124 14.8815 11.0627 12.8733 9.01148 10.8665C8.90128 10.7587 8.78654 10.6553 8.62223 10.5013Z" fill="#3F3F3F"/>
    <path d="M0.5 19.933C3.17764 17.3104 5.92443 14.6203 8.64993 11.9509C11.3608 14.603 14.0991 17.282 16.8794 20.002C16.3282 20.5436 15.7661 21.1186 15.1718 21.6597C15.0596 21.7618 14.8198 21.7551 14.6388 21.7554C11.7551 21.761 8.87128 21.771 5.98781 21.7481C5.50245 21.7442 5.36397 21.8763 5.38648 22.3438C5.42545 23.1547 5.39726 23.9688 5.39726 24.7573C3.75097 23.1355 2.11546 21.5244 0.5 19.933Z" fill="#3F3F3F"/>
    <path d="M20.8479 15.9636C20.328 15.4606 19.7388 14.9092 19.1788 14.3306C19.0821 14.2307 19.0843 14.0155 19.084 13.8535C19.0785 11.0005 19.071 8.14743 19.089 5.2945C19.0918 4.87057 18.9713 4.72846 18.5345 4.74392C17.7059 4.77308 16.8754 4.75234 16.0928 4.75234C17.7257 3.15511 19.3549 1.56149 20.9514 0C23.6037 2.60156 26.3462 5.29154 29.0523 7.94588C26.3684 10.5687 23.6205 13.2541 20.8479 15.9636Z" fill="#3F3F3F"/>
    <path d="M11.2122 32.0404C11.9593 32.7472 12.687 33.4354 13.4806 34.1863C13.2681 34.2053 13.1631 34.2227 13.0581 34.2228C10.9929 34.2243 8.92776 34.2207 6.86251 34.2271C6.55593 34.228 6.364 34.195 6.36524 33.8109C6.37706 30.2313 6.37204 26.6515 6.37364 23.0719C6.37364 22.9808 6.39427 22.8897 6.40988 22.7604H18.0917C18.0917 23.5564 18.1055 24.3676 18.0784 25.1773C18.0738 25.3141 17.9088 25.4609 17.7908 25.5766C15.7431 27.5874 13.6909 29.5938 11.6403 31.6019C11.5191 31.7205 11.4033 31.8443 11.2122 32.0404Z" fill="#3F3F3F"/>
    <path d="M25.8905 35.1785C24.1606 36.8633 22.533 38.4484 20.9396 40C18.2161 37.3349 15.4685 34.646 12.7432 31.979C15.4462 29.3364 18.1956 26.6487 20.983 23.9237C21.5149 24.4476 22.0906 24.9925 22.6329 25.5676C22.7385 25.6796 22.7442 25.9091 22.7446 26.0846C22.7511 28.9218 22.7609 31.7593 22.738 34.5964C22.7341 35.0768 22.8883 35.2066 23.3561 35.1876C24.1663 35.1548 24.9788 35.1785 25.8905 35.1785Z" fill="#3F3F3F"/>
    <path d="M102.143 30.6025C101.075 29.6443 100.723 28.497 101.162 27.1872C101.618 25.8298 102.712 25.1881 104.085 24.9362C105.18 24.7353 106.239 24.8865 107.292 25.2187C107.59 25.3127 107.94 25.2742 108.264 25.2581C108.998 25.2215 109.73 25.1611 110.5 25.1078V27.0211H109.106C109.118 27.2523 109.114 27.4161 109.137 27.5759C109.327 28.8508 108.813 29.8798 107.649 30.5087C106.556 31.0984 105.375 31.1828 104.163 31.061C103.915 31.036 103.667 31.0181 103.37 30.9927C103.355 31.2911 103.342 31.5463 103.327 31.864C103.552 31.8751 103.749 31.8863 103.945 31.8946C105.108 31.944 106.277 31.9347 107.431 32.0584C108.546 32.1779 109.466 32.6841 109.741 33.8596C110.049 35.1746 109.688 36.3036 108.593 37.1618C107.815 37.7715 106.884 38.0116 105.918 38.0977C104.69 38.2072 103.459 38.1747 102.263 37.842C101.135 37.5284 100.564 36.8148 100.639 35.7619C100.663 35.417 100.858 35.0672 101.037 34.7536C101.213 34.4461 101.467 34.1817 101.711 33.868C100.613 32.7713 101.441 31.7041 102.143 30.6025ZM105.09 34.1525C104.586 34.1525 104.081 34.1431 103.577 34.1594C103.458 34.1633 103.268 34.2264 103.235 34.3093C102.992 34.9285 102.882 35.5762 103.724 35.8862C104.298 36.0978 104.944 36.1739 105.564 36.2025C106.193 36.2316 106.845 36.1245 107.332 35.688C107.534 35.5059 107.719 35.1491 107.68 34.9077C107.641 34.6675 107.34 34.4311 107.099 34.2716C106.935 34.1624 106.677 34.1653 106.46 34.158C106.004 34.1425 105.547 34.1532 105.09 34.1525ZM103.514 28.0957C103.506 28.9628 104.112 29.542 105.042 29.5578C105.921 29.5727 106.637 28.9068 106.638 28.075C106.639 27.216 106.004 26.5787 105.135 26.566C104.159 26.5518 103.523 27.1524 103.514 28.0957Z" fill="#3F3F3F"/>
    <path d="M50.1762 34.1445H47.4829C47.4736 33.977 47.4569 33.8149 47.4569 33.653C47.4553 30.1971 47.4627 26.7411 47.4463 23.2853C47.4445 22.8789 47.5566 22.7396 47.9746 22.7617C48.5561 22.7926 49.1412 22.7855 49.7237 22.7637C50.0746 22.7505 50.1881 22.8684 50.183 23.2145C50.1649 24.4485 50.1917 25.6832 50.1675 26.9169C50.1595 27.3261 50.2904 27.4486 50.7056 27.4404C51.9345 27.4162 53.1647 27.4185 54.3939 27.4394C54.7742 27.4459 54.8756 27.3188 54.8701 26.9618C54.8514 25.7278 54.8773 24.4931 54.8545 23.2593C54.8474 22.8669 54.9852 22.7509 55.3706 22.7631C56.1058 22.7864 56.8424 22.7699 57.6043 22.7699V34.131H54.879V29.436H54.0145C52.8955 29.4362 51.776 29.4492 50.6572 29.4289C50.2879 29.4222 50.1624 29.528 50.1685 29.8984C50.1889 31.1324 50.1762 32.3668 50.1762 33.6011V34.1445Z" fill="#3F3F3F"/>
    <path d="M81.2777 33.516C80.3389 34.3295 79.3768 34.4429 78.337 34.2779C76.8122 34.0358 75.8364 33.1825 75.3802 31.7612C75.0304 30.6705 74.9671 29.5493 75.1998 28.4276C75.5494 26.7429 76.8676 25.5106 78.6925 25.2292C79.508 25.1036 80.3466 25.1243 81.2477 25.0746V21.9101H84.0087V22.425C84.0087 26.1723 84.0009 29.9198 84.0188 33.667C84.0211 34.1164 83.8923 34.2658 83.4361 34.2339C82.9187 34.1978 82.3955 34.2043 81.8771 34.2323C81.454 34.255 81.1467 34.2055 81.2777 33.516ZM81.2536 29.5773C81.2536 28.946 81.2359 28.314 81.2607 27.6836C81.2737 27.3544 81.1187 27.2349 80.8266 27.2271C80.4027 27.2158 79.9733 27.1797 79.5547 27.2264C78.7918 27.3115 78.2379 27.7085 77.9797 28.4364C77.7315 29.1365 77.7323 29.8526 77.8716 30.5759C78.0878 31.6993 78.8285 32.2608 79.9806 32.143C80.276 32.113 80.5648 32.0276 80.8587 31.979C81.1585 31.9294 81.2698 31.7742 81.2599 31.4711C81.2389 30.8404 81.2536 30.2086 81.2536 29.5773Z" fill="#3F3F3F"/>
    <path d="M56.1245 17.107C56.5654 15.8257 56.9756 14.6346 57.385 13.4431C58.2159 11.0239 59.0526 8.60644 59.8697 6.18273C59.9761 5.86721 60.1204 5.7487 60.4659 5.75666C61.4579 5.77954 62.4509 5.77147 63.4434 5.76018C63.6982 5.75722 63.8358 5.82018 63.9239 6.07801C65.1542 9.67994 66.3966 13.2779 67.6346 16.8773C67.6489 16.919 67.6452 16.9668 67.6545 17.0576C67.5358 17.0744 67.4207 17.1037 67.3054 17.1046C66.6752 17.1093 66.0425 17.0733 65.4157 17.1186C64.9764 17.1504 64.8119 16.9752 64.6997 16.5958C64.4592 15.7836 64.161 14.9877 63.9213 14.1754C63.8237 13.8446 63.6542 13.7502 63.3182 13.7576C62.389 13.7783 61.4587 13.7807 60.5298 13.758C60.174 13.7493 60.0005 13.8493 59.8976 14.1985C59.6455 15.055 59.3346 15.8947 59.0728 16.7487C58.9908 17.016 58.8708 17.1199 58.5803 17.1132C57.7951 17.0952 57.0095 17.107 56.1245 17.107ZM63.1269 11.8116C62.7361 10.3509 62.3608 8.94752 61.9853 7.54414L61.8414 7.54998C61.4678 8.95834 61.0943 10.3667 60.711 11.8116H63.1269Z" fill="#3F3F3F"/>
    <path d="M89.0203 17.1048C88.1496 17.1048 87.3033 17.1169 86.4583 17.0898C86.3501 17.0864 86.1983 16.8962 86.1522 16.7641C85.8528 15.9058 85.5624 15.0438 85.301 14.1738C85.2037 13.8494 85.0434 13.7475 84.7034 13.7559C83.7745 13.779 82.8439 13.7856 81.9156 13.7541C81.5191 13.7407 81.3716 13.8884 81.267 14.2385C81.0203 15.0646 80.709 15.8724 80.4642 16.6989C80.3653 17.0331 80.2006 17.1245 79.8646 17.1141C79.1113 17.091 78.3567 17.1069 77.5386 17.1069C77.576 16.9471 77.5922 16.8343 77.6288 16.7281C78.8405 13.2008 80.0572 9.67509 81.2617 6.14539C81.3557 5.87014 81.477 5.75164 81.7885 5.75747C82.7964 5.77627 83.8048 5.77043 84.813 5.76052C85.0649 5.75803 85.2037 5.81516 85.2931 6.07715C86.5276 9.69454 87.7756 13.3075 89.0192 16.922C89.0285 16.949 89.0203 16.9818 89.0203 17.1048ZM83.3638 7.54857C83.3143 7.54931 83.2647 7.55004 83.2152 7.55079C82.8426 8.95925 82.47 10.3678 82.0898 11.8042H84.4963C84.1079 10.345 83.7359 8.94683 83.3638 7.54857Z" fill="#3F3F3F"/>
    <path d="M76.4847 6.40312C76.2609 6.92667 76.0542 7.45828 75.7978 7.96581C75.7506 8.05886 75.4958 8.10154 75.3455 8.08627C74.4275 7.99276 73.5133 7.86295 72.5947 7.7763C72.3877 7.75677 72.1552 7.8299 71.9575 7.91285C71.3013 8.18839 71.1844 8.89904 71.7576 9.31251C72.1579 9.60119 72.6294 9.79783 73.0776 10.0192C73.8492 10.4003 74.6628 10.7122 75.3953 11.1542C76.8415 12.0268 77.3771 13.3777 76.9271 14.8341C76.587 15.9344 75.7486 16.5465 74.6993 16.9301C74.409 17.0363 74.107 17.1119 73.766 17.2149C74.0265 17.9479 74.3379 18.67 73.8484 19.3941C73.306 20.1962 72.4469 20.5514 71.5505 20.9396C71.2459 20.4237 70.9504 19.9232 70.638 19.3942C70.8842 19.248 71.1147 19.121 71.3344 18.9785C71.8856 18.6215 72.0542 18.0496 71.7391 17.4931C71.6784 17.3858 71.4639 17.3423 71.3113 17.3076C70.4881 17.1213 69.6607 16.9531 68.8387 16.7632C68.6766 16.7258 68.5311 16.6201 68.3472 16.5311C68.5742 15.9643 68.8038 15.4272 69.0029 14.8795C69.1132 14.5762 69.2935 14.6865 69.4901 14.7451C70.7107 15.1087 71.9518 15.2673 73.2159 15.0235C73.6909 14.9319 74.1214 14.733 74.2422 14.1953C74.3476 13.7259 74.1546 13.3582 73.7621 13.1294C73.2917 12.8553 72.7837 12.6429 72.2913 12.4049C71.5736 12.0579 70.8184 11.7692 70.1458 11.3527C68.9903 10.6371 68.5708 9.53527 68.7567 8.23634C68.9276 7.04119 69.7273 6.32377 70.8401 5.94548C72.7191 5.30675 74.5582 5.52109 76.3524 6.29247C76.393 6.30998 76.4233 6.35081 76.4847 6.40312Z" fill="#3F3F3F"/>
    <path d="M50.1917 17.0745H47.4844V5.80141C47.5927 5.78771 47.6826 5.76652 47.7725 5.76652C49.301 5.7666 50.8314 5.72781 52.3571 5.79142C52.9847 5.81762 53.646 5.97288 54.2174 6.22878C56.8672 7.41494 57.22 11.058 54.8816 12.7865C53.8033 13.5836 52.5483 13.8194 51.2393 13.8745C50.9124 13.8882 50.5844 13.8765 50.1917 13.8765V17.0745ZM50.1826 9.82913C50.1826 10.3528 50.1975 10.8769 50.1772 11.3998C50.1643 11.7284 50.2966 11.8369 50.6192 11.8151C50.9797 11.7908 51.3437 11.8156 51.7041 11.7898C52.7297 11.7164 53.4528 11.1371 53.5799 10.2136C53.7472 8.99819 53.3239 7.80554 51.6042 7.83999C51.2582 7.84693 50.9113 7.85285 50.5659 7.83665C50.2795 7.82323 50.1727 7.93479 50.1792 8.21217C50.1919 8.75091 50.183 9.2901 50.1826 9.82913Z" fill="#3F3F3F"/>
    <path d="M96.4488 34.1281C96.4488 32.3952 96.452 30.7012 96.4457 29.0072C96.4446 28.7004 96.4079 28.3935 96.3815 28.0871C96.3378 27.5797 96.0417 27.3103 95.5351 27.2564C94.7316 27.171 93.9663 27.3353 93.2467 27.6672C93.1215 27.725 93.035 27.9893 93.0336 28.1589C93.0183 29.9629 93.0237 31.7668 93.0237 33.5708C93.0236 33.7515 93.0237 33.9323 93.0237 34.1621C92.1508 34.1621 91.3357 34.1745 90.5221 34.1444C90.4346 34.1411 90.2875 33.8929 90.2849 33.7561C90.2648 32.708 90.2733 31.6594 90.2733 30.6109C90.2731 28.992 90.2733 27.3732 90.2733 25.7542V25.1677H92.9909C93.0105 25.4177 93.0314 25.6843 93.0586 26.0346C93.2614 25.9172 93.4185 25.8325 93.5692 25.7378C94.6588 25.0537 95.8336 24.7487 97.1217 25.0004C98.4276 25.2557 99.0618 25.8453 99.1196 27.2531C99.2132 29.5288 99.1449 31.8108 99.1449 34.1281H96.4488Z" fill="#3F3F3F"/>
    <path d="M68.7024 29.6497C68.7238 33.3109 64.9807 35.4268 61.6938 33.6216C60.5608 32.9992 59.9867 31.9978 59.7982 30.7859C59.6483 29.8213 59.6718 28.85 60.0059 27.9086C60.607 26.2162 62.0838 25.1773 64.0123 25.1381C64.5434 25.1274 65.0885 25.1625 65.6065 25.2709C67.4811 25.6634 68.5883 26.986 68.7004 28.9096C68.7147 29.1555 68.7024 29.403 68.7024 29.6497ZM62.2991 29.7576C62.3745 30.1532 62.4149 30.6493 62.5694 31.1089C62.8059 31.8131 63.4382 32.1581 64.2875 32.1401C65.1546 32.1217 65.6853 31.7664 65.9158 31.0007C66.1699 30.1563 66.1669 29.2961 65.9429 28.4474C65.7135 27.5793 65.1383 27.1641 64.2289 27.1576C63.3222 27.1513 62.6949 27.6052 62.4795 28.4733C62.384 28.8582 62.3659 29.2615 62.2991 29.7576Z" fill="#3F3F3F"/>
    <rect x="70.6675" y="21.9197" width="2.73279" height="12.2132" fill="#3F3F3F"/>
    <path d="M85.956 25.3305H88.5324V34.1658C87.7211 34.1658 86.8951 34.1717 86.0694 34.154C86.0066 34.1526 85.8945 33.9832 85.8944 33.8917C85.8874 31.087 85.8914 28.2822 85.8961 25.4775C85.8961 25.4355 85.9294 25.3934 85.956 25.3305Z" fill="#3F3F3F"/>
    <path d="M85.9638 21.2542H88.4523V23.721C87.6978 23.721 86.9341 23.7274 86.171 23.7101C86.1001 23.7086 85.9748 23.5568 85.973 23.4728C85.9571 22.7503 85.9638 22.0274 85.9638 21.2542Z" fill="#3F3F3F"/>
  </g>
</svg>